<svg xmlns="http://www.w3.org/2000/svg" width="210" height="297" viewBox="0 0 210 297"><path d="m103.5 89.4s2.2 21.3 12.8 14.2c0 0-5.4 13.4 0.3 15.6 0 0 6.3 4.5 11.1-9l1.1 5.2s3.6 0.1 7.6-6.8c0 0-5 12.8-2.9 15.8 0 0 2.2 2.9 4.5 3 0 0-8.9 4.7-9.4 9.4l5.6 4 10.3 2.3s-9.9 1.9-10.5 3c0 0-1 2.6 1 4.2 0 0-12.1-2-13.3 1.8 0 0 0 4.7 1 6.1 0 0-13.1-3.6-17.9-10.7l-2.9 28.2-3.9-0.8s3.3-7.7 5.4-27.5c0 0-6.8 7.7-18 10.7 0 0 4.5-8.1-2.4-7.5 0 0-5.1 0.4-11.6-0.9 0 0 3.6-1 1.1-3.2-0.5-0.3-9.3-4.6-9.4-6.3 0 0 6.5 2 17.5-2.8 0 0-3-7.5-10.2-10.2 0 0 6.6-1.2 5.4-4.5 0 0-4.3-8.9-3.9-11.3 0 0 5.3 7 9.3 6.5l-0.2-3.5s0.5-0.5 1.8 1.4c0 0 3.5 5.2 7.1 5.6 0 0 1.9 0.8 4.4-6.6 0 0 0.4-5.6-2.5-11.5 0 0 7 3.1 9.1-0.9 0 0 3.4-8 2.7-13z" style="fill:#008000;stroke-width:0.3px;stroke:#000"/></svg>
