<?xml version="1.0" encoding="UTF-8"?>
<!-- Created with Inkscape (http://www.inkscape.org/) -->
<svg width="1200" height="720" version="1.1" xmlns="http://www.w3.org/2000/svg" xmlns:cc="http://creativecommons.org/ns#" xmlns:dc="http://purl.org/dc/elements/1.1/" xmlns:rdf="http://www.w3.org/1999/02/22-rdf-syntax-ns#">

 <g fill="#008000" stroke="#000">
  <path d="m782.81 131.82s0.96815 8.2768 5.6329 5.5179c0 0-2.3764 5.207 0.13203 6.0619 0 0 2.7724 1.7486 4.8848-3.4973l0.48407 2.0206s1.5843 0.0388 3.3445-2.6424c0 0-2.2004 4.9739-1.2762 6.1396 0 0 0.96815 1.1269 1.9803 1.1658 0 0-3.9166 1.8263-4.1367 3.6527l2.4644 1.5543 4.5327 0.89374s-4.3567 0.73831-4.6207 1.1658c0 0-0.44007 1.0103 0.44008 1.6321 0 0-5.3249-0.77718-5.8529 0.69944 0 0 0 1.8264 0.44007 2.3704 0 0-5.7649-1.3989-7.8773-4.1578l-1.2762 10.958-1.7163-0.31087s1.4522-2.9921 2.3764-10.686c0 0-2.9925 2.9921-7.9213 4.1578 0 0 1.9803-3.1475-1.0562-2.9144 0 0-2.2444 0.15543-5.1048-0.34973 0 0 1.5842-0.38858 0.48407-1.2435-0.22004-0.11658-4.0927-1.7875-4.1367-2.4481 0 0 2.8604 0.77717 7.7012-1.088 0 0-1.3202-2.9144-4.4887-3.9636 0 0 2.9045-0.4663 2.3764-1.7486 0 0-1.8923-3.4584-1.7163-4.391 0 0 2.3324 2.7201 4.0926 2.5258l-0.0881-1.36s0.22003-0.19429 0.79213 0.54402c0 0 1.5402 2.0206 3.1245 2.1761 0 0 0.83614 0.31086 1.9363-2.5647 0 0 0.17603-2.1761-1.1002-4.4687 0 0 3.0805 1.2046 4.0046-0.34973 0 0 1.4962-3.1087 1.1882-5.0516z" stroke-width=".12406px"/>
  <g stroke-width=".11129px">
   <path d="m771.93 157.78s0.87801 7.345 5.1084 4.8967c0 0-2.1551 4.6208 0.11974 5.3795 0 0 2.5143 1.5518 4.43-3.1035l0.439 1.7932s1.4368 0.0344 3.0332-2.3449c0 0-1.9955 4.4139-1.1574 5.4484 0 0 0.87801 1 1.7959 1.0345 0 0-3.552 1.6207-3.7515 3.2415l2.235 1.3794 4.1107 0.79312s-3.951 0.65519-4.1905 1.0345c0 0-0.39909 0.89658 0.39911 1.4483 0 0-4.8291-0.68969-5.308 0.6207 0 0 0 1.6207 0.3991 2.1035 0 0-5.2282-1.2414-7.1438-3.6898l-1.1574 9.7244-1.5565-0.27588s1.317-2.6552 2.1551-9.483c0 0-2.7139 2.6553-7.1838 3.6898 0 0 1.7959-2.7932-0.95783-2.5863 0 0-2.0354 0.13793-4.6295-0.31036 0 0 1.4367-0.34484 0.439-1.1035-0.19956-0.10345-3.7116-1.5862-3.7515-2.1725 0 0 2.5941 0.68967 6.9842-0.96555 0 0-1.1973-2.5863-4.0708-3.5174 0 0 2.634-0.41381 2.1551-1.5518 0 0-1.7161-3.069-1.5565-3.8967 0 0 2.1152 2.4139 3.7116 2.2414l-0.0799-1.2069s0.19955-0.17242 0.71838 0.48277c0 0 1.3968 1.7932 2.8336 1.9311 0 0 0.75829 0.27587 1.756-2.2759 0 0 0.15964-1.9311-0.99774-3.9656 0 0 2.7937 1.069 3.6318-0.31036 0 0 1.3569-2.7587 1.0776-4.4829z"/>
   <path d="m748.02 160.04s0.87801 7.345 5.1084 4.8967c0 0-2.1551 4.6208 0.11974 5.3795 0 0 2.5143 1.5518 4.43-3.1035l0.439 1.7932s1.4368 0.0344 3.0332-2.3449c0 0-1.9955 4.4139-1.1574 5.4484 0 0 0.87801 1 1.7959 1.0345 0 0-3.552 1.6207-3.7515 3.2415l2.235 1.3794 4.1107 0.79312s-3.951 0.65519-4.1905 1.0345c0 0-0.39909 0.89658 0.39911 1.4483 0 0-4.8291-0.68969-5.308 0.6207 0 0 0 1.6207 0.3991 2.1035 0 0-5.2282-1.2414-7.1438-3.6898l-1.1574 9.7244-1.5565-0.27588s1.317-2.6552 2.1551-9.483c0 0-2.7139 2.6553-7.1838 3.6898 0 0 1.7959-2.7932-0.95783-2.5863 0 0-2.0354 0.13793-4.6295-0.31036 0 0 1.4367-0.34484 0.439-1.1035-0.19956-0.10345-3.7116-1.5862-3.7515-2.1725 0 0 2.5941 0.68967 6.9842-0.96555 0 0-1.1973-2.5863-4.0708-3.5174 0 0 2.634-0.41381 2.1551-1.5518 0 0-1.7161-3.069-1.5565-3.8967 0 0 2.1152 2.4139 3.7116 2.2414l-0.0799-1.2069s0.19955-0.17242 0.71838 0.48277c0 0 1.3968 1.7932 2.8336 1.9311 0 0 0.75829 0.27587 1.756-2.2759 0 0 0.15964-1.9311-0.99774-3.9656 0 0 2.7937 1.069 3.6318-0.31036 0 0 1.3569-2.7587 1.0776-4.4829z"/>
   <path d="m733.1 161.09s0.87801 7.345 5.1084 4.8967c0 0-2.1551 4.6208 0.11974 5.3795 0 0 2.5143 1.5518 4.43-3.1035l0.439 1.7932s1.4368 0.0344 3.0332-2.3449c0 0-1.9955 4.4139-1.1574 5.4484 0 0 0.87801 1 1.7959 1.0345 0 0-3.552 1.6207-3.7515 3.2415l2.235 1.3794 4.1107 0.79312s-3.951 0.65519-4.1905 1.0345c0 0-0.39909 0.89658 0.39911 1.4483 0 0-4.8291-0.68969-5.308 0.6207 0 0 0 1.6207 0.3991 2.1035 0 0-5.2282-1.2414-7.1438-3.6898l-1.1574 9.7244-1.5565-0.27588s1.317-2.6552 2.1551-9.483c0 0-2.7139 2.6553-7.1838 3.6898 0 0 1.7959-2.7932-0.95783-2.5863 0 0-2.0354 0.13793-4.6295-0.31036 0 0 1.4367-0.34484 0.439-1.1035-0.19956-0.10345-3.7116-1.5862-3.7515-2.1725 0 0 2.5941 0.68967 6.9842-0.96555 0 0-1.1973-2.5863-4.0708-3.5174 0 0 2.634-0.41381 2.1551-1.5518 0 0-1.7161-3.069-1.5565-3.8967 0 0 2.1152 2.4139 3.7116 2.2414l-0.0799-1.2069s0.19955-0.17242 0.71838 0.48277c0 0 1.3968 1.7932 2.8336 1.9311 0 0 0.75829 0.27587 1.756-2.2759 0 0 0.15964-1.9311-0.99774-3.9656 0 0 2.7937 1.069 3.6318-0.31036 0 0 1.3569-2.7587 1.0776-4.4829z"/>
   <path d="m716.84 164.81s0.87801 7.345 5.1084 4.8967c0 0-2.1551 4.6208 0.11974 5.3795 0 0 2.5143 1.5518 4.43-3.1035l0.439 1.7932s1.4368 0.0344 3.0332-2.3449c0 0-1.9955 4.4139-1.1574 5.4484 0 0 0.87801 1 1.7959 1.0345 0 0-3.552 1.6207-3.7515 3.2415l2.235 1.3794 4.1107 0.79312s-3.951 0.65519-4.1905 1.0345c0 0-0.39909 0.89658 0.39911 1.4483 0 0-4.8291-0.68969-5.308 0.6207 0 0 0 1.6207 0.3991 2.1035 0 0-5.2282-1.2414-7.1438-3.6898l-1.1574 9.7244-1.5565-0.27588s1.317-2.6552 2.1551-9.483c0 0-2.7139 2.6553-7.1838 3.6898 0 0 1.7959-2.7932-0.95783-2.5863 0 0-2.0354 0.13793-4.6295-0.31036 0 0 1.4367-0.34484 0.439-1.1035-0.19956-0.10345-3.7116-1.5862-3.7515-2.1725 0 0 2.5941 0.68967 6.9842-0.96555 0 0-1.1973-2.5863-4.0708-3.5174 0 0 2.634-0.41381 2.1551-1.5518 0 0-1.7161-3.069-1.5565-3.8967 0 0 2.1152 2.4139 3.7116 2.2414l-0.0799-1.2069s0.19955-0.17242 0.71838 0.48277c0 0 1.3968 1.7932 2.8336 1.9311 0 0 0.75829 0.27587 1.756-2.2759 0 0 0.15964-1.9311-0.99774-3.9656 0 0 2.7937 1.069 3.6318-0.31036 0 0 1.3569-2.7587 1.0776-4.4829z"/>
   <path d="m685.13 138.7s0.87801 7.345 5.1084 4.8967c0 0-2.1551 4.6208 0.11974 5.3795 0 0 2.5143 1.5518 4.43-3.1035l0.439 1.7932s1.4368 0.0344 3.0332-2.3449c0 0-1.9955 4.4139-1.1574 5.4484 0 0 0.87801 1 1.7959 1.0345 0 0-3.552 1.6207-3.7515 3.2415l2.235 1.3794 4.1107 0.79312s-3.951 0.65519-4.1905 1.0345c0 0-0.39909 0.89658 0.39911 1.4483 0 0-4.8291-0.68969-5.308 0.6207 0 0 0 1.6207 0.3991 2.1035 0 0-5.2282-1.2414-7.1438-3.6898l-1.1574 9.7244-1.5565-0.27588s1.317-2.6552 2.1551-9.483c0 0-2.7139 2.6553-7.1838 3.6898 0 0 1.7959-2.7932-0.95783-2.5863 0 0-2.0354 0.13793-4.6295-0.31036 0 0 1.4367-0.34484 0.439-1.1035-0.19956-0.10345-3.7116-1.5862-3.7515-2.1725 0 0 2.5941 0.68967 6.9842-0.96555 0 0-1.1973-2.5863-4.0708-3.5174 0 0 2.634-0.41381 2.1551-1.5518 0 0-1.7161-3.069-1.5565-3.8967 0 0 2.1152 2.4139 3.7116 2.2414l-0.0799-1.2069s0.19955-0.17242 0.71838 0.48277c0 0 1.3968 1.7932 2.8336 1.9311 0 0 0.75829 0.27587 1.756-2.2759 0 0 0.15964-1.9311-0.99774-3.9656 0 0 2.7937 1.069 3.6318-0.31036 0 0 1.3569-2.7587 1.0776-4.4829z"/>
   <path d="m743.09 128.89s0.87801 7.345 5.1084 4.8967c0 0-2.1551 4.6208 0.11974 5.3795 0 0 2.5143 1.5518 4.43-3.1035l0.439 1.7932s1.4368 0.0344 3.0332-2.3449c0 0-1.9955 4.4139-1.1574 5.4484 0 0 0.87801 1 1.7959 1.0345 0 0-3.552 1.6207-3.7515 3.2415l2.235 1.3794 4.1107 0.79312s-3.951 0.65519-4.1905 1.0345c0 0-0.39909 0.89658 0.39911 1.4483 0 0-4.8291-0.68969-5.308 0.6207 0 0 0 1.6207 0.3991 2.1035 0 0-5.2282-1.2414-7.1438-3.6898l-1.1574 9.7244-1.5565-0.27588s1.317-2.6552 2.1551-9.483c0 0-2.7139 2.6553-7.1838 3.6898 0 0 1.7959-2.7932-0.95783-2.5863 0 0-2.0354 0.13793-4.6295-0.31036 0 0 1.4367-0.34484 0.439-1.1035-0.19956-0.10345-3.7116-1.5862-3.7515-2.1725 0 0 2.5941 0.68967 6.9842-0.96555 0 0-1.1973-2.5863-4.0708-3.5174 0 0 2.634-0.41381 2.1551-1.5518 0 0-1.7161-3.069-1.5565-3.8967 0 0 2.1152 2.4139 3.7116 2.2414l-0.0799-1.2069s0.19955-0.17242 0.71838 0.48277c0 0 1.3968 1.7932 2.8336 1.9311 0 0 0.75829 0.27587 1.756-2.2759 0 0 0.15964-1.9311-0.99774-3.9656 0 0 2.7937 1.069 3.6318-0.31036 0 0 1.3569-2.7587 1.0776-4.4829z"/>
   <path d="m716.95 130.07s0.87801 7.345 5.1084 4.8967c0 0-2.1551 4.6208 0.11974 5.3795 0 0 2.5143 1.5518 4.43-3.1035l0.439 1.7932s1.4368 0.0344 3.0332-2.3449c0 0-1.9955 4.4139-1.1574 5.4484 0 0 0.87801 1 1.7959 1.0345 0 0-3.552 1.6207-3.7515 3.2415l2.235 1.3794 4.1107 0.79312s-3.951 0.65519-4.1905 1.0345c0 0-0.39909 0.89658 0.39911 1.4483 0 0-4.8291-0.68969-5.308 0.6207 0 0 0 1.6207 0.3991 2.1035 0 0-5.2282-1.2414-7.1438-3.6898l-1.1574 9.7244-1.5565-0.27588s1.317-2.6552 2.1551-9.483c0 0-2.7139 2.6553-7.1837 3.6898 0 0 1.7959-2.7932-0.95783-2.5863 0 0-2.0354 0.13793-4.6295-0.31036 0 0 1.4367-0.34484 0.439-1.1035-0.19956-0.10345-3.7116-1.5862-3.7515-2.1725 0 0 2.5941 0.68967 6.9842-0.96555 0 0-1.1973-2.5863-4.0708-3.5174 0 0 2.634-0.41381 2.1551-1.5518 0 0-1.7161-3.069-1.5565-3.8967 0 0 2.1152 2.4139 3.7116 2.2414l-0.0799-1.2069s0.19955-0.17242 0.71838 0.48277c0 0 1.3968 1.7932 2.8336 1.9311 0 0 0.75829 0.27587 1.756-2.2759 0 0 0.15964-1.9311-0.99774-3.9656 0 0 2.7937 1.069 3.6318-0.31036 0 0 1.3569-2.7587 1.0776-4.4829z"/>
   <path d="m674.83 161.29s0.87801 7.345 5.1084 4.8967c0 0-2.1551 4.6208 0.11974 5.3795 0 0 2.5143 1.5518 4.43-3.1035l0.439 1.7932s1.4368 0.0344 3.0332-2.3449c0 0-1.9955 4.4139-1.1574 5.4484 0 0 0.87801 1 1.7959 1.0345 0 0-3.552 1.6207-3.7515 3.2415l2.235 1.3794 4.1107 0.79312s-3.951 0.65519-4.1905 1.0345c0 0-0.39909 0.89658 0.39911 1.4483 0 0-4.8291-0.68969-5.308 0.6207 0 0 0 1.6207 0.3991 2.1035 0 0-5.2282-1.2414-7.1438-3.6898l-1.1574 9.7244-1.5565-0.27588s1.317-2.6552 2.1551-9.483c0 0-2.7139 2.6553-7.1838 3.6898 0 0 1.7959-2.7932-0.95783-2.5863 0 0-2.0354 0.13793-4.6295-0.31036 0 0 1.4367-0.34484 0.439-1.1035-0.19956-0.10345-3.7116-1.5862-3.7515-2.1725 0 0 2.5941 0.68967 6.9842-0.96555 0 0-1.1973-2.5863-4.0708-3.5174 0 0 2.634-0.41381 2.1551-1.5518 0 0-1.7161-3.069-1.5565-3.8967 0 0 2.1152 2.4139 3.7116 2.2414l-0.0799-1.2069s0.19955-0.17242 0.71838 0.48277c0 0 1.3968 1.7932 2.8336 1.9311 0 0 0.75829 0.27587 1.756-2.2759 0 0 0.15964-1.9311-0.99774-3.9656 0 0 2.7937 1.069 3.6318-0.31036 0 0 1.3569-2.7587 1.0776-4.4829z"/>
   <path d="m652.57 161.7s0.87801 7.345 5.1084 4.8967c0 0-2.1551 4.6208 0.11974 5.3795 0 0 2.5143 1.5518 4.43-3.1035l0.439 1.7932s1.4368 0.0344 3.0332-2.3449c0 0-1.9955 4.4139-1.1574 5.4484 0 0 0.87801 1 1.7959 1.0345 0 0-3.552 1.6207-3.7515 3.2415l2.235 1.3794 4.1107 0.79312s-3.951 0.65519-4.1905 1.0345c0 0-0.39909 0.89658 0.39911 1.4483 0 0-4.8291-0.68969-5.308 0.6207 0 0 0 1.6207 0.3991 2.1035 0 0-5.2282-1.2414-7.1438-3.6898l-1.1574 9.7244-1.5565-0.27588s1.317-2.6552 2.1551-9.483c0 0-2.7139 2.6553-7.1838 3.6898 0 0 1.7959-2.7932-0.95783-2.5863 0 0-2.0354 0.13793-4.6295-0.31036 0 0 1.4367-0.34484 0.439-1.1035-0.19956-0.10345-3.7116-1.5862-3.7515-2.1725 0 0 2.5941 0.68967 6.9842-0.96555 0 0-1.1973-2.5863-4.0708-3.5174 0 0 2.634-0.41381 2.1551-1.5518 0 0-1.7161-3.069-1.5565-3.8967 0 0 2.1152 2.4139 3.7116 2.2414l-0.0799-1.2069s0.19955-0.17242 0.71838 0.48277c0 0 1.3968 1.7932 2.8336 1.9311 0 0 0.75829 0.27587 1.756-2.2759 0 0 0.15964-1.9311-0.99774-3.9656 0 0 2.7937 1.069 3.6318-0.31036 0 0 1.3569-2.7587 1.0776-4.4829z"/>
   <path d="m636.48 159.22s0.87801 7.345 5.1084 4.8967c0 0-2.1551 4.6208 0.11974 5.3795 0 0 2.5143 1.5518 4.43-3.1035l0.439 1.7932s1.4368 0.0344 3.0332-2.3449c0 0-1.9955 4.4139-1.1574 5.4484 0 0 0.87801 1 1.7959 1.0345 0 0-3.552 1.6207-3.7515 3.2415l2.235 1.3794 4.1107 0.79312s-3.951 0.65519-4.1905 1.0345c0 0-0.39909 0.89658 0.39911 1.4483 0 0-4.8291-0.68969-5.308 0.6207 0 0 0 1.6207 0.3991 2.1035 0 0-5.2282-1.2414-7.1438-3.6898l-1.1574 9.7244-1.5565-0.27588s1.317-2.6552 2.1551-9.483c0 0-2.7139 2.6553-7.1838 3.6898 0 0 1.7959-2.7932-0.95783-2.5863 0 0-2.0354 0.13793-4.6295-0.31036 0 0 1.4367-0.34484 0.439-1.1035-0.19956-0.10345-3.7116-1.5862-3.7515-2.1725 0 0 2.5941 0.68967 6.9842-0.96555 0 0-1.1973-2.5863-4.0708-3.5174 0 0 2.634-0.41381 2.1551-1.5518 0 0-1.7161-3.069-1.5565-3.8967 0 0 2.1152 2.4139 3.7116 2.2414l-0.0799-1.2069s0.19955-0.17242 0.71838 0.48277c0 0 1.3968 1.7932 2.8336 1.9311 0 0 0.75829 0.27587 1.756-2.2759 0 0 0.15964-1.9311-0.99774-3.9656 0 0 2.7937 1.069 3.6318-0.31036 0 0 1.3569-2.7587 1.0776-4.4829z"/>
   <path d="m612.7 153.01s0.87801 7.345 5.1084 4.8967c0 0-2.1551 4.6208 0.11974 5.3795 0 0 2.5143 1.5518 4.43-3.1035l0.439 1.7932s1.4368 0.0344 3.0332-2.3449c0 0-1.9955 4.4139-1.1574 5.4484 0 0 0.87801 1 1.7959 1.0345 0 0-3.552 1.6207-3.7515 3.2415l2.235 1.3794 4.1107 0.79312s-3.951 0.65519-4.1905 1.0345c0 0-0.39909 0.89658 0.39911 1.4483 0 0-4.8291-0.68969-5.308 0.6207 0 0 0 1.6207 0.3991 2.1035 0 0-5.2282-1.2414-7.1438-3.6898l-1.1574 9.7244-1.5565-0.27588s1.317-2.6552 2.1551-9.483c0 0-2.7139 2.6553-7.1838 3.6898 0 0 1.7959-2.7932-0.95783-2.5863 0 0-2.0354 0.13793-4.6295-0.31036 0 0 1.4367-0.34484 0.439-1.1035-0.19956-0.10345-3.7116-1.5862-3.7515-2.1725 0 0 2.5941 0.68967 6.9842-0.96555 0 0-1.1973-2.5863-4.0708-3.5174 0 0 2.634-0.41381 2.1551-1.5518 0 0-1.7161-3.069-1.5565-3.8967 0 0 2.1152 2.4139 3.7116 2.2414l-0.0799-1.2069s0.19955-0.17242 0.71838 0.48277c0 0 1.3968 1.7932 2.8336 1.9311 0 0 0.75829 0.27587 1.756-2.2759 0 0 0.15964-1.9311-0.99774-3.9656 0 0 2.7937 1.069 3.6318-0.31036 0 0 1.3569-2.7587 1.0776-4.4829z"/>
   <path d="m590.07 144.25s0.87801 7.345 5.1084 4.8967c0 0-2.1551 4.6208 0.11974 5.3795 0 0 2.5143 1.5518 4.43-3.1035l0.439 1.7932s1.4368 0.0344 3.0332-2.3449c0 0-1.9955 4.4139-1.1574 5.4484 0 0 0.87801 1 1.7959 1.0345 0 0-3.552 1.6207-3.7515 3.2415l2.235 1.3794 4.1107 0.79312s-3.951 0.65519-4.1905 1.0345c0 0-0.39909 0.89658 0.39911 1.4483 0 0-4.8291-0.68969-5.308 0.6207 0 0 0 1.6207 0.3991 2.1035 0 0-5.2282-1.2414-7.1438-3.6898l-1.1574 9.7244-1.5565-0.27588s1.317-2.6552 2.1551-9.483c0 0-2.7139 2.6553-7.1838 3.6898 0 0 1.7959-2.7932-0.95783-2.5863 0 0-2.0354 0.13793-4.6295-0.31036 0 0 1.4367-0.34484 0.439-1.1035-0.19956-0.10345-3.7116-1.5862-3.7515-2.1725 0 0 2.5941 0.68967 6.9842-0.96555 0 0-1.1973-2.5863-4.0708-3.5174 0 0 2.634-0.41381 2.1551-1.5518 0 0-1.7161-3.069-1.5565-3.8967 0 0 2.1152 2.4139 3.7116 2.2414l-0.0799-1.2069s0.19955-0.17242 0.71838 0.48277c0 0 1.3968 1.7932 2.8336 1.9311 0 0 0.75829 0.27587 1.756-2.2759 0 0 0.15964-1.9311-0.99774-3.9656 0 0 2.7937 1.069 3.6318-0.31036 0 0 1.3569-2.7587 1.0776-4.4829z"/>
   <path d="m603.1 198.66s0.87801 7.345 5.1084 4.8967c0 0-2.1551 4.6208 0.11974 5.3795 0 0 2.5143 1.5518 4.43-3.1035l0.439 1.7932s1.4368 0.0344 3.0332-2.3449c0 0-1.9955 4.4139-1.1574 5.4484 0 0 0.87801 1 1.7959 1.0345 0 0-3.552 1.6207-3.7515 3.2415l2.235 1.3794 4.1107 0.79312s-3.951 0.65519-4.1905 1.0345c0 0-0.39909 0.89658 0.39911 1.4483 0 0-4.8291-0.68969-5.308 0.6207 0 0 0 1.6207 0.3991 2.1035 0 0-5.2282-1.2414-7.1438-3.6898l-1.1574 9.7244-1.5565-0.27588s1.317-2.6552 2.1551-9.483c0 0-2.7139 2.6553-7.1838 3.6898 0 0 1.7959-2.7932-0.95783-2.5863 0 0-2.0354 0.13793-4.6295-0.31036 0 0 1.4367-0.34484 0.439-1.1035-0.19956-0.10345-3.7116-1.5862-3.7515-2.1725 0 0 2.5941 0.68967 6.9842-0.96555 0 0-1.1973-2.5863-4.0708-3.5174 0 0 2.634-0.41381 2.1551-1.5518 0 0-1.7161-3.069-1.5565-3.8967 0 0 2.1152 2.4139 3.7116 2.2414l-0.0799-1.2069s0.19955-0.17242 0.71838 0.48277c0 0 1.3968 1.7932 2.8336 1.9311 0 0 0.75829 0.27587 1.756-2.2759 0 0 0.15964-1.9311-0.99774-3.9656 0 0 2.7937 1.069 3.6318-0.31036 0 0 1.3569-2.7587 1.0776-4.4829z"/>
   <path d="m628.6 200.63s0.87801 7.345 5.1084 4.8967c0 0-2.1551 4.6208 0.11974 5.3795 0 0 2.5143 1.5518 4.43-3.1035l0.439 1.7932s1.4368 0.0344 3.0332-2.3449c0 0-1.9955 4.4139-1.1574 5.4484 0 0 0.87801 1 1.7959 1.0345 0 0-3.552 1.6207-3.7515 3.2415l2.235 1.3794 4.1107 0.79312s-3.951 0.65519-4.1905 1.0345c0 0-0.39909 0.89658 0.39911 1.4483 0 0-4.8291-0.68969-5.308 0.6207 0 0 0 1.6207 0.3991 2.1035 0 0-5.2282-1.2414-7.1438-3.6898l-1.1574 9.7244-1.5565-0.27588s1.317-2.6552 2.1551-9.483c0 0-2.7139 2.6553-7.1838 3.6898 0 0 1.7959-2.7932-0.95783-2.5863 0 0-2.0354 0.13793-4.6295-0.31036 0 0 1.4367-0.34484 0.439-1.1035-0.19956-0.10345-3.7116-1.5862-3.7515-2.1725 0 0 2.5941 0.68967 6.9842-0.96555 0 0-1.1973-2.5863-4.0708-3.5174 0 0 2.634-0.41381 2.1551-1.5518 0 0-1.7161-3.069-1.5565-3.8967 0 0 2.1152 2.4139 3.7116 2.2414l-0.0799-1.2069s0.19955-0.17242 0.71838 0.48277c0 0 1.3968 1.7932 2.8336 1.9311 0 0 0.75829 0.27587 1.756-2.2759 0 0 0.15964-1.9311-0.99774-3.9656 0 0 2.7937 1.069 3.6318-0.31036 0 0 1.3569-2.7587 1.0776-4.4829z"/>
   <path d="m657.34 199.46s0.87801 7.345 5.1084 4.8967c0 0-2.1551 4.6208 0.11974 5.3795 0 0 2.5143 1.5518 4.43-3.1035l0.439 1.7932s1.4368 0.0344 3.0332-2.3449c0 0-1.9955 4.4139-1.1574 5.4484 0 0 0.87801 1 1.7959 1.0345 0 0-3.552 1.6207-3.7515 3.2415l2.235 1.3794 4.1107 0.79312s-3.951 0.65519-4.1905 1.0345c0 0-0.39909 0.89658 0.39911 1.4483 0 0-4.8291-0.68969-5.308 0.6207 0 0 0 1.6207 0.3991 2.1035 0 0-5.2282-1.2414-7.1438-3.6898l-1.1574 9.7244-1.5565-0.27588s1.317-2.6552 2.1551-9.483c0 0-2.7139 2.6553-7.1838 3.6898 0 0 1.7959-2.7932-0.95783-2.5863 0 0-2.0354 0.13793-4.6295-0.31036 0 0 1.4367-0.34484 0.439-1.1035-0.19956-0.10345-3.7116-1.5862-3.7515-2.1725 0 0 2.5941 0.68967 6.9842-0.96555 0 0-1.1973-2.5863-4.0708-3.5174 0 0 2.634-0.41381 2.1551-1.5518 0 0-1.7161-3.069-1.5565-3.8967 0 0 2.1152 2.4139 3.7116 2.2414l-0.0799-1.2069s0.19955-0.17242 0.71838 0.48277c0 0 1.3968 1.7932 2.8336 1.9311 0 0 0.75829 0.27587 1.756-2.2759 0 0 0.15964-1.9311-0.99774-3.9656 0 0 2.7937 1.069 3.6318-0.31036 0 0 1.3569-2.7587 1.0776-4.4829z"/>
   <path d="m678.65 202.46s0.87801 7.345 5.1084 4.8967c0 0-2.1551 4.6208 0.11974 5.3795 0 0 2.5143 1.5518 4.43-3.1035l0.439 1.7932s1.4368 0.0344 3.0332-2.3449c0 0-1.9955 4.4139-1.1574 5.4484 0 0 0.87801 1 1.7959 1.0345 0 0-3.552 1.6207-3.7515 3.2415l2.235 1.3794 4.1107 0.79312s-3.951 0.65519-4.1905 1.0345c0 0-0.39909 0.89658 0.39911 1.4483 0 0-4.8291-0.68969-5.308 0.6207 0 0 0 1.6207 0.3991 2.1035 0 0-5.2282-1.2414-7.1438-3.6898l-1.1574 9.7244-1.5565-0.27588s1.317-2.6552 2.1551-9.483c0 0-2.7139 2.6553-7.1838 3.6898 0 0 1.7959-2.7932-0.95783-2.5863 0 0-2.0354 0.13793-4.6295-0.31036 0 0 1.4367-0.34484 0.439-1.1035-0.19956-0.10345-3.7116-1.5862-3.7515-2.1725 0 0 2.5941 0.68967 6.9842-0.96555 0 0-1.1973-2.5863-4.0708-3.5174 0 0 2.634-0.41381 2.1551-1.5518 0 0-1.7161-3.069-1.5565-3.8967 0 0 2.1152 2.4139 3.7116 2.2414l-0.0799-1.2069s0.19955-0.17242 0.71838 0.48277c0 0 1.3968 1.7932 2.8336 1.9311 0 0 0.75829 0.27587 1.756-2.2759 0 0 0.15964-1.9311-0.99774-3.9656 0 0 2.7937 1.069 3.6318-0.31036 0 0 1.3569-2.7587 1.0776-4.4829z"/>
   <path d="m696.33 209.15s0.87801 7.345 5.1084 4.8967c0 0-2.1551 4.6208 0.11974 5.3795 0 0 2.5143 1.5518 4.43-3.1035l0.439 1.7932s1.4368 0.0344 3.0332-2.3449c0 0-1.9955 4.4139-1.1574 5.4484 0 0 0.87801 1 1.7959 1.0345 0 0-3.552 1.6207-3.7515 3.2415l2.235 1.3794 4.1107 0.79312s-3.951 0.65519-4.1905 1.0345c0 0-0.39909 0.89658 0.39911 1.4483 0 0-4.8291-0.68969-5.308 0.6207 0 0 0 1.6207 0.3991 2.1035 0 0-5.2282-1.2414-7.1438-3.6898l-1.1574 9.7244-1.5565-0.27588s1.317-2.6552 2.1551-9.483c0 0-2.7139 2.6553-7.1838 3.6898 0 0 1.7959-2.7932-0.95783-2.5863 0 0-2.0354 0.13793-4.6295-0.31036 0 0 1.4367-0.34484 0.439-1.1035-0.19956-0.10345-3.7116-1.5862-3.7515-2.1725 0 0 2.5941 0.68967 6.9842-0.96555 0 0-1.1973-2.5863-4.0708-3.5174 0 0 2.634-0.41381 2.1551-1.5518 0 0-1.7161-3.069-1.5565-3.8967 0 0 2.1152 2.4139 3.7116 2.2414l-0.0799-1.2069s0.19955-0.17242 0.71838 0.48277c0 0 1.3968 1.7932 2.8336 1.9311 0 0 0.75829 0.27587 1.756-2.2759 0 0 0.15964-1.9311-0.99774-3.9656 0 0 2.7937 1.069 3.6318-0.31036 0 0 1.3569-2.7587 1.0776-4.4829z"/>
   <path d="m691.44 268.61s-0.87801-7.345-5.1084-4.8967c0 0 2.1551-4.6208-0.11974-5.3795 0 0-2.5143-1.5518-4.43 3.1035l-0.439-1.7932s-1.4368-0.0344-3.0332 2.3449c0 0 1.9955-4.4139 1.1574-5.4484 0 0-0.87801-1-1.7959-1.0345 0 0 3.552-1.6207 3.7515-3.2415l-2.235-1.3794-4.1107-0.79312s3.951-0.65519 4.1905-1.0345c0 0 0.39909-0.89658-0.39911-1.4483 0 0 4.8291 0.68969 5.308-0.6207 0 0 0-1.6207-0.3991-2.1035 0 0 5.2282 1.2414 7.1438 3.6898l1.1574-9.7244 1.5565 0.27588s-1.317 2.6552-2.1551 9.483c0 0 2.7139-2.6553 7.1838-3.6898 0 0-1.7959 2.7932 0.95783 2.5863 0 0 2.0354-0.13793 4.6295 0.31036 0 0-1.4367 0.34484-0.439 1.1035 0.19956 0.10345 3.7116 1.5862 3.7515 2.1725 0 0-2.5941-0.68967-6.9842 0.96555 0 0 1.1973 2.5863 4.0708 3.5174 0 0-2.634 0.41381-2.1551 1.5518 0 0 1.7161 3.069 1.5565 3.8967 0 0-2.1152-2.4139-3.7116-2.2414l0.0799 1.2069s-0.19955 0.17242-0.71838-0.48277c0 0-1.3968-1.7932-2.8336-1.9311 0 0-0.75829-0.27587-1.756 2.2759 0 0-0.15964 1.9311 0.99774 3.9656 0 0-2.7937-1.069-3.6318 0.31036 0 0-1.3569 2.7587-1.0776 4.4829z"/>
   <path d="m672.84 262.62s-0.87801-7.345-5.1084-4.8967c0 0 2.1551-4.6208-0.11974-5.3795 0 0-2.5143-1.5518-4.43 3.1035l-0.439-1.7932s-1.4368-0.0344-3.0332 2.3449c0 0 1.9955-4.4139 1.1574-5.4484 0 0-0.87801-1-1.7959-1.0345 0 0 3.552-1.6207 3.7515-3.2415l-2.235-1.3794-4.1107-0.79312s3.951-0.65519 4.1905-1.0345c0 0 0.39909-0.89658-0.39911-1.4483 0 0 4.8291 0.68969 5.308-0.6207 0 0 0-1.6207-0.3991-2.1035 0 0 5.2282 1.2414 7.1438 3.6898l1.1574-9.7244 1.5565 0.27588s-1.317 2.6552-2.1551 9.483c0 0 2.7139-2.6553 7.1838-3.6898 0 0-1.7959 2.7932 0.95783 2.5863 0 0 2.0354-0.13793 4.6295 0.31036 0 0-1.4367 0.34484-0.439 1.1035 0.19956 0.10345 3.7116 1.5862 3.7515 2.1725 0 0-2.5941-0.68967-6.9842 0.96555 0 0 1.1973 2.5863 4.0708 3.5174 0 0-2.634 0.41381-2.1551 1.5518 0 0 1.7161 3.069 1.5565 3.8967 0 0-2.1152-2.4139-3.7116-2.2414l0.0799 1.2069s-0.19955 0.17242-0.71838-0.48277c0 0-1.3968-1.7932-2.8336-1.9311 0 0-0.75829-0.27587-1.756 2.2759 0 0-0.15964 1.9311 0.99774 3.9656 0 0-2.7937-1.069-3.6318 0.31036 0 0-1.3569 2.7587-1.0776 4.4829z"/>
   <path d="m644.54 260.58s-0.87801-7.345-5.1084-4.8967c0 0 2.1551-4.6208-0.11974-5.3795 0 0-2.5143-1.5518-4.43 3.1035l-0.439-1.7932s-1.4368-0.0344-3.0332 2.3449c0 0 1.9955-4.4139 1.1574-5.4484 0 0-0.87801-1-1.7959-1.0345 0 0 3.552-1.6207 3.7515-3.2415l-2.235-1.3794-4.1107-0.79312s3.951-0.65519 4.1905-1.0345c0 0 0.39909-0.89658-0.39911-1.4483 0 0 4.8291 0.68969 5.308-0.6207 0 0 0-1.6207-0.3991-2.1035 0 0 5.2282 1.2414 7.1438 3.6898l1.1574-9.7244 1.5565 0.27588s-1.317 2.6552-2.1551 9.483c0 0 2.7139-2.6553 7.1838-3.6898 0 0-1.7959 2.7932 0.95783 2.5863 0 0 2.0354-0.13793 4.6295 0.31036 0 0-1.4367 0.34484-0.439 1.1035 0.19956 0.10345 3.7116 1.5862 3.7515 2.1725 0 0-2.5941-0.68967-6.9842 0.96555 0 0 1.1973 2.5863 4.0708 3.5174 0 0-2.634 0.41381-2.1551 1.5518 0 0 1.7161 3.069 1.5565 3.8967 0 0-2.1152-2.4139-3.7116-2.2414l0.0799 1.2069s-0.19955 0.17242-0.71838-0.48277c0 0-1.3968-1.7932-2.8336-1.9311 0 0-0.75829-0.27587-1.756 2.2759 0 0-0.15964 1.9311 0.99774 3.9656 0 0-2.7937-1.069-3.6318 0.31036 0 0-1.3569 2.7587-1.0776 4.4829z"/>
   <path d="m625.35 258.51s-0.87801-7.345-5.1084-4.8967c0 0 2.1551-4.6208-0.11974-5.3795 0 0-2.5143-1.5518-4.43 3.1035l-0.439-1.7932s-1.4368-0.0344-3.0332 2.3449c0 0 1.9955-4.4139 1.1574-5.4484 0 0-0.87801-1-1.7959-1.0345 0 0 3.552-1.6207 3.7515-3.2415l-2.235-1.3794-4.1107-0.79312s3.951-0.65519 4.1905-1.0345c0 0 0.39909-0.89658-0.39911-1.4483 0 0 4.8291 0.68969 5.308-0.6207 0 0 0-1.6207-0.3991-2.1035 0 0 5.2282 1.2414 7.1438 3.6898l1.1574-9.7244 1.5565 0.27588s-1.317 2.6552-2.1551 9.483c0 0 2.7139-2.6553 7.1838-3.6898 0 0-1.7959 2.7932 0.95783 2.5863 0 0 2.0354-0.13793 4.6295 0.31036 0 0-1.4367 0.34484-0.439 1.1035 0.19956 0.10345 3.7116 1.5862 3.7515 2.1725 0 0-2.5941-0.68967-6.9842 0.96555 0 0 1.1973 2.5863 4.0708 3.5174 0 0-2.634 0.41381-2.1551 1.5518 0 0 1.7161 3.069 1.5565 3.8967 0 0-2.1152-2.4139-3.7116-2.2414l0.0799 1.2069s-0.19955 0.17242-0.71838-0.48277c0 0-1.3968-1.7932-2.8336-1.9311 0 0-0.75829-0.27587-1.756 2.2759 0 0-0.15964 1.9311 0.99774 3.9656 0 0-2.7937-1.069-3.6318 0.31036 0 0-1.3569 2.7587-1.0776 4.4829z"/>
   <path d="m605.55 261.2s-0.87801-7.345-5.1084-4.8967c0 0 2.1551-4.6208-0.11974-5.3795 0 0-2.5143-1.5518-4.43 3.1035l-0.439-1.7932s-1.4368-0.0344-3.0332 2.3449c0 0 1.9955-4.4139 1.1574-5.4484 0 0-0.87801-1-1.7959-1.0345 0 0 3.552-1.6207 3.7515-3.2415l-2.235-1.3794-4.1107-0.79312s3.951-0.65519 4.1905-1.0345c0 0 0.39909-0.89658-0.39911-1.4483 0 0 4.8291 0.68969 5.308-0.6207 0 0 0-1.6207-0.3991-2.1035 0 0 5.2282 1.2414 7.1438 3.6898l1.1574-9.7244 1.5565 0.27588s-1.317 2.6552-2.1551 9.483c0 0 2.7139-2.6553 7.1838-3.6898 0 0-1.7959 2.7932 0.95783 2.5863 0 0 2.0354-0.13793 4.6295 0.31036 0 0-1.4367 0.34484-0.439 1.1035 0.19956 0.10345 3.7116 1.5862 3.7515 2.1725 0 0-2.5941-0.68967-6.9842 0.96555 0 0 1.1973 2.5863 4.0708 3.5174 0 0-2.634 0.41381-2.1551 1.5518 0 0 1.7161 3.069 1.5565 3.8967 0 0-2.1152-2.4139-3.7116-2.2414l0.0799 1.2069s-0.19955 0.17242-0.71838-0.48277c0 0-1.3968-1.7932-2.8336-1.9311 0 0-0.75829-0.27587-1.756 2.2759 0 0-0.15964 1.9311 0.99774 3.9656 0 0-2.7937-1.069-3.6318 0.31036 0 0-1.3569 2.7587-1.0776 4.4829z"/>
   <path d="m817.4 161.83s-7.345 0.87801-4.8967 5.1084c0 0-4.6208-2.1551-5.3795 0.11974 0 0-1.5518 2.5143 3.1035 4.43l-1.7932 0.439s-0.0344 1.4368 2.3449 3.0332c0 0-4.4139-1.9955-5.4484-1.1574 0 0-1 0.87801-1.0345 1.7959 0 0-1.6207-3.552-3.2415-3.7515l-1.3794 2.235-0.79312 4.1107s-0.65519-3.951-1.0345-4.1905c0 0-0.89658-0.39909-1.4483 0.39911 0 0 0.68969-4.8291-0.6207-5.308 0 0-1.6207 0-2.1035 0.3991 0 0 1.2414-5.2282 3.6898-7.1438l-9.7244-1.1574 0.27588-1.5565s2.6552 1.317 9.483 2.1551c0 0-2.6553-2.7139-3.6898-7.1838 0 0 2.7932 1.7959 2.5863-0.95783 0 0-0.13793-2.0354 0.31036-4.6295 0 0 0.34484 1.4367 1.1035 0.439 0.10345-0.19956 1.5862-3.7116 2.1725-3.7515 0 0-0.68967 2.5941 0.96555 6.9842 0 0 2.5863-1.1973 3.5174-4.0708 0 0 0.41381 2.634 1.5518 2.1551 0 0 3.069-1.7161 3.8967-1.5565 0 0-2.4139 2.1152-2.2414 3.7116l1.2069-0.0799s0.17242 0.19955-0.48277 0.71838c0 0-1.7932 1.3968-1.9311 2.8336 0 0-0.27587 0.75829 2.2759 1.756 0 0 1.9311 0.15964 3.9656-0.99774 0 0-1.069 2.7937 0.31036 3.6318 0 0 2.7587 1.3569 4.4829 1.0776z"/>
   <path d="m824.99 181.07s-7.345 0.87801-4.8967 5.1084c0 0-4.6208-2.1551-5.3795 0.11974 0 0-1.5518 2.5143 3.1035 4.43l-1.7932 0.439s-0.0344 1.4368 2.3449 3.0332c0 0-4.4139-1.9955-5.4484-1.1574 0 0-1 0.87801-1.0345 1.7959 0 0-1.6207-3.552-3.2415-3.7515l-1.3794 2.235-0.79312 4.1107s-0.65519-3.951-1.0345-4.1905c0 0-0.89658-0.39909-1.4483 0.39911 0 0 0.68969-4.8291-0.6207-5.308 0 0-1.6207 0-2.1035 0.3991 0 0 1.2414-5.2282 3.6898-7.1438l-9.7244-1.1574 0.27588-1.5565s2.6552 1.317 9.483 2.1551c0 0-2.6553-2.7139-3.6898-7.1838 0 0 2.7932 1.7959 2.5863-0.95783 0 0-0.13793-2.0354 0.31036-4.6295 0 0 0.34484 1.4367 1.1035 0.439 0.10345-0.19956 1.5862-3.7116 2.1725-3.7515 0 0-0.68967 2.5941 0.96555 6.9842 0 0 2.5863-1.1973 3.5174-4.0708 0 0 0.41381 2.634 1.5518 2.1551 0 0 3.069-1.7161 3.8967-1.5565 0 0-2.4139 2.1152-2.2414 3.7116l1.2069-0.0799s0.17242 0.19955-0.48277 0.71838c0 0-1.7932 1.3968-1.9311 2.8336 0 0-0.27587 0.75829 2.2759 1.756 0 0 1.9311 0.15964 3.9656-0.99774 0 0-1.069 2.7937 0.31036 3.6318 0 0 2.7587 1.3569 4.4829 1.0776z"/>
   <path d="m816.75 192.2s-7.345 0.87801-4.8967 5.1084c0 0-4.6208-2.1551-5.3795 0.11974 0 0-1.5518 2.5143 3.1035 4.43l-1.7932 0.439s-0.0344 1.4368 2.3449 3.0332c0 0-4.4139-1.9955-5.4484-1.1574 0 0-1 0.87801-1.0345 1.7959 0 0-1.6207-3.552-3.2415-3.7515l-1.3794 2.235-0.79312 4.1107s-0.65519-3.951-1.0345-4.1905c0 0-0.89658-0.39909-1.4483 0.39911 0 0 0.68969-4.8291-0.6207-5.308 0 0-1.6207 0-2.1035 0.3991 0 0 1.2414-5.2282 3.6898-7.1438l-9.7244-1.1574 0.27588-1.5565s2.6552 1.317 9.483 2.1551c0 0-2.6553-2.7139-3.6898-7.1838 0 0 2.7932 1.7959 2.5863-0.95783 0 0-0.13793-2.0354 0.31036-4.6295 0 0 0.34484 1.4367 1.1035 0.439 0.10345-0.19956 1.5862-3.7116 2.1725-3.7515 0 0-0.68967 2.5941 0.96555 6.9842 0 0 2.5863-1.1973 3.5174-4.0708 0 0 0.41381 2.634 1.5518 2.1551 0 0 3.069-1.7161 3.8967-1.5565 0 0-2.4139 2.1152-2.2414 3.7116l1.2069-0.0799s0.17242 0.19955-0.48277 0.71838c0 0-1.7932 1.3968-1.9311 2.8336 0 0-0.27587 0.75829 2.2759 1.756 0 0 1.9311 0.15964 3.9656-0.99774 0 0-1.069 2.7937 0.31036 3.6318 0 0 2.7587 1.3569 4.4829 1.0776z"/>
   <path d="m611.28 11.264s-7.345 0.87801-4.8967 5.1084c0 0-4.6208-2.1551-5.3795 0.11974 0 0-1.5518 2.5143 3.1035 4.43l-1.7932 0.439s-0.0344 1.4368 2.3449 3.0332c0 0-4.4139-1.9955-5.4484-1.1574 0 0-1 0.87801-1.0345 1.7959 0 0-1.6207-3.552-3.2415-3.7515l-1.3794 2.235-0.79312 4.1107s-0.65519-3.951-1.0345-4.1905c0 0-0.89658-0.39909-1.4483 0.39911 0 0 0.68969-4.8291-0.6207-5.308 0 0-1.6207 0-2.1035 0.3991 0 0 1.2414-5.2282 3.6898-7.1438l-9.7244-1.1574 0.27588-1.5565s2.6552 1.317 9.483 2.1551c0 0-2.6553-2.7139-3.6898-7.1838 0 0 2.7932 1.7959 2.5863-0.95783 0 0-0.13793-2.0354 0.31036-4.6295 0 0 0.34484 1.4367 1.1035 0.439 0.10345-0.19956 1.5862-3.7116 2.1725-3.7515 0 0-0.68967 2.5941 0.96555 6.9842 0 0 2.5863-1.1973 3.5174-4.0708 0 0 0.41381 2.634 1.5518 2.1551 0 0 3.069-1.7161 3.8967-1.5565 0 0-2.4139 2.1152-2.2414 3.7116l1.2069-0.0799s0.17242 0.19955-0.48277 0.71838c0 0-1.7932 1.3968-1.9311 2.8336 0 0-0.27587 0.75829 2.2759 1.756 0 0 1.9311 0.15964 3.9656-0.99774 0 0-1.069 2.7937 0.31036 3.6318 0 0 2.7587 1.3569 4.4829 1.0776z"/>
   <path d="m776.9 217.38s-0.87801-7.345-5.1084-4.8967c0 0 2.1551-4.6208-0.11974-5.3795 0 0-2.5143-1.5518-4.43 3.1035l-0.439-1.7932s-1.4368-0.0344-3.0332 2.3449c0 0 1.9955-4.4139 1.1574-5.4484 0 0-0.87801-1-1.7959-1.0345 0 0 3.552-1.6207 3.7515-3.2415l-2.235-1.3794-4.1107-0.79312s3.951-0.65519 4.1905-1.0345c0 0 0.39909-0.89658-0.39911-1.4483 0 0 4.8291 0.68969 5.308-0.6207 0 0 0-1.6207-0.3991-2.1035 0 0 5.2282 1.2414 7.1438 3.6898l1.1574-9.7244 1.5565 0.27588s-1.317 2.6552-2.1551 9.483c0 0 2.7139-2.6553 7.1838-3.6898 0 0-1.7959 2.7932 0.95783 2.5863 0 0 2.0354-0.13793 4.6295 0.31036 0 0-1.4367 0.34484-0.439 1.1035 0.19956 0.10345 3.7116 1.5862 3.7515 2.1725 0 0-2.5941-0.68967-6.9842 0.96555 0 0 1.1973 2.5863 4.0708 3.5174 0 0-2.634 0.41381-2.1551 1.5518 0 0 1.7161 3.069 1.5565 3.8967 0 0-2.1152-2.4139-3.7116-2.2414l0.0799 1.2069s-0.19955 0.17242-0.71838-0.48277c0 0-1.3968-1.7932-2.8336-1.9311 0 0-0.75829-0.27587-1.756 2.2759 0 0-0.15964 1.9311 0.99774 3.9656 0 0-2.7937-1.069-3.6318 0.31036 0 0-1.3569 2.7587-1.0776 4.4829z"/>
   <path d="m755.55 224.62s-0.87801-7.345-5.1084-4.8967c0 0 2.1551-4.6208-0.11974-5.3795 0 0-2.5143-1.5518-4.43 3.1035l-0.439-1.7932s-1.4368-0.0344-3.0332 2.3449c0 0 1.9955-4.4139 1.1574-5.4484 0 0-0.87801-1-1.7959-1.0345 0 0 3.552-1.6207 3.7515-3.2415l-2.235-1.3794-4.1107-0.79312s3.951-0.65519 4.1905-1.0345c0 0 0.39909-0.89658-0.39911-1.4483 0 0 4.8291 0.68969 5.308-0.6207 0 0 0-1.6207-0.3991-2.1035 0 0 5.2282 1.2414 7.1438 3.6898l1.1574-9.7244 1.5565 0.27588s-1.317 2.6552-2.1551 9.483c0 0 2.7139-2.6553 7.1838-3.6898 0 0-1.7959 2.7932 0.95783 2.5863 0 0 2.0354-0.13793 4.6295 0.31036 0 0-1.4367 0.34484-0.439 1.1035 0.19956 0.10345 3.7116 1.5862 3.7515 2.1725 0 0-2.5941-0.68967-6.9842 0.96555 0 0 1.1973 2.5863 4.0708 3.5174 0 0-2.634 0.41381-2.1551 1.5518 0 0 1.7161 3.069 1.5565 3.8967 0 0-2.1152-2.4139-3.7116-2.2414l0.0799 1.2069s-0.19955 0.17242-0.71838-0.48277c0 0-1.3968-1.7932-2.8336-1.9311 0 0-0.75829-0.27587-1.756 2.2759 0 0-0.15964 1.9311 0.99774 3.9656 0 0-2.7937-1.069-3.6318 0.31036 0 0-1.3569 2.7587-1.0776 4.4829z"/>
   <path d="m729.21 231.04s-0.87801-7.345-5.1084-4.8967c0 0 2.1551-4.6208-0.11974-5.3795 0 0-2.5143-1.5518-4.43 3.1035l-0.439-1.7932s-1.4368-0.0344-3.0332 2.3449c0 0 1.9955-4.4139 1.1574-5.4484 0 0-0.87801-1-1.7959-1.0345 0 0 3.552-1.6207 3.7515-3.2415l-2.235-1.3794-4.1107-0.79312s3.951-0.65519 4.1905-1.0345c0 0 0.39909-0.89658-0.39911-1.4483 0 0 4.8291 0.68969 5.308-0.6207 0 0 0-1.6207-0.3991-2.1035 0 0 5.2282 1.2414 7.1438 3.6898l1.1574-9.7244 1.5565 0.27588s-1.317 2.6552-2.1551 9.483c0 0 2.7139-2.6553 7.1838-3.6898 0 0-1.7959 2.7932 0.95783 2.5863 0 0 2.0354-0.13793 4.6295 0.31036 0 0-1.4367 0.34484-0.439 1.1035 0.19956 0.10345 3.7116 1.5862 3.7515 2.1725 0 0-2.5941-0.68967-6.9842 0.96555 0 0 1.1973 2.5863 4.0708 3.5174 0 0-2.634 0.41381-2.1551 1.5518 0 0 1.7161 3.069 1.5565 3.8967 0 0-2.1152-2.4139-3.7116-2.2414l0.0799 1.2069s-0.19955 0.17242-0.71838-0.48277c0 0-1.3968-1.7932-2.8336-1.9311 0 0-0.75829-0.27587-1.756 2.2759 0 0-0.15964 1.9311 0.99774 3.9656 0 0-2.7937-1.069-3.6318 0.31036 0 0-1.3569 2.7587-1.0776 4.4829z"/>
   <path d="m716.75 228.21s-0.87801-7.345-5.1084-4.8967c0 0 2.1551-4.6208-0.11974-5.3795 0 0-2.5143-1.5518-4.43 3.1035l-0.439-1.7932s-1.4368-0.0344-3.0332 2.3449c0 0 1.9955-4.4139 1.1574-5.4484 0 0-0.87801-1-1.7959-1.0345 0 0 3.552-1.6207 3.7515-3.2415l-2.235-1.3794-4.1107-0.79312s3.951-0.65519 4.1905-1.0345c0 0 0.39909-0.89658-0.39911-1.4483 0 0 4.8291 0.68969 5.308-0.6207 0 0 0-1.6207-0.3991-2.1035 0 0 5.2282 1.2414 7.1438 3.6898l1.1574-9.7244 1.5565 0.27588s-1.317 2.6552-2.1551 9.483c0 0 2.7139-2.6553 7.1838-3.6898 0 0-1.7959 2.7932 0.95783 2.5863 0 0 2.0354-0.13793 4.6295 0.31036 0 0-1.4367 0.34484-0.439 1.1035 0.19956 0.10345 3.7116 1.5862 3.7515 2.1725 0 0-2.5941-0.68967-6.9842 0.96555 0 0 1.1973 2.5863 4.0708 3.5174 0 0-2.634 0.41381-2.1551 1.5518 0 0 1.7161 3.069 1.5565 3.8967 0 0-2.1152-2.4139-3.7116-2.2414l0.0799 1.2069s-0.19955 0.17242-0.71838-0.48277c0 0-1.3968-1.7932-2.8336-1.9311 0 0-0.75829-0.27587-1.756 2.2759 0 0-0.15964 1.9311 0.99774 3.9656 0 0-2.7937-1.069-3.6318 0.31036 0 0-1.3569 2.7587-1.0776 4.4829z"/>
   <path d="m706.67 224.32s-0.87801-7.345-5.1084-4.8967c0 0 2.1551-4.6208-0.11974-5.3795 0 0-2.5143-1.5518-4.43 3.1035l-0.439-1.7932s-1.4368-0.0344-3.0332 2.3449c0 0 1.9955-4.4139 1.1574-5.4484 0 0-0.87801-1-1.7959-1.0345 0 0 3.552-1.6207 3.7515-3.2415l-2.235-1.3794-4.1107-0.79312s3.951-0.65519 4.1905-1.0345c0 0 0.39909-0.89658-0.39911-1.4483 0 0 4.8291 0.68969 5.308-0.6207 0 0 0-1.6207-0.3991-2.1035 0 0 5.2282 1.2414 7.1438 3.6898l1.1574-9.7244 1.5565 0.27588s-1.317 2.6552-2.1551 9.483c0 0 2.7139-2.6553 7.1838-3.6898 0 0-1.7959 2.7932 0.95783 2.5863 0 0 2.0354-0.13793 4.6295 0.31036 0 0-1.4367 0.34484-0.439 1.1035 0.19956 0.10345 3.7116 1.5862 3.7515 2.1725 0 0-2.5941-0.68967-6.9842 0.96555 0 0 1.1973 2.5863 4.0708 3.5174 0 0-2.634 0.41381-2.1551 1.5518 0 0 1.7161 3.069 1.5565 3.8967 0 0-2.1152-2.4139-3.7116-2.2414l0.0799 1.2069s-0.19955 0.17242-0.71838-0.48277c0 0-1.3968-1.7932-2.8336-1.9311 0 0-0.75829-0.27587-1.756 2.2759 0 0-0.15964 1.9311 0.99774 3.9656 0 0-2.7937-1.069-3.6318 0.31036 0 0-1.3569 2.7587-1.0776 4.4829z"/>
   <path d="m602.76 28.864s-7.345 0.87801-4.8967 5.1084c0 0-4.6208-2.1551-5.3795 0.11974 0 0-1.5518 2.5143 3.1035 4.43l-1.7932 0.439s-0.0344 1.4368 2.3449 3.0332c0 0-4.4139-1.9955-5.4484-1.1574 0 0-1 0.87801-1.0345 1.7959 0 0-1.6207-3.552-3.2415-3.7515l-1.3794 2.235-0.79312 4.1107s-0.65519-3.951-1.0345-4.1905c0 0-0.89658-0.39909-1.4483 0.39911 0 0 0.68969-4.8291-0.6207-5.308 0 0-1.6207 0-2.1035 0.3991 0 0 1.2414-5.2282 3.6898-7.1438l-9.7244-1.1574 0.27588-1.5565s2.6552 1.317 9.483 2.1551c0 0-2.6553-2.7139-3.6898-7.1837 0 0 2.7932 1.7959 2.5863-0.95783 0 0-0.13793-2.0354 0.31036-4.6295 0 0 0.34484 1.4367 1.1035 0.439 0.10345-0.19956 1.5862-3.7116 2.1725-3.7515 0 0-0.68967 2.5941 0.96555 6.9842 0 0 2.5863-1.1973 3.5174-4.0708 0 0 0.41381 2.634 1.5518 2.1551 0 0 3.069-1.7161 3.8967-1.5565 0 0-2.4139 2.1152-2.2414 3.7116l1.2069-0.0799s0.17242 0.19955-0.48277 0.71838c0 0-1.7932 1.3968-1.9311 2.8336 0 0-0.27587 0.75829 2.2759 1.756 0 0 1.9311 0.15964 3.9656-0.99774 0 0-1.069 2.7937 0.31036 3.6318 0 0 2.7587 1.3569 4.4829 1.0776z"/>
   <path d="m592.8 46.863s-7.345 0.87801-4.8967 5.1084c0 0-4.6208-2.1551-5.3795 0.11974 0 0-1.5518 2.5143 3.1035 4.43l-1.7932 0.439s-0.0344 1.4368 2.3449 3.0332c0 0-4.4139-1.9955-5.4484-1.1574 0 0-1 0.87801-1.0345 1.7959 0 0-1.6207-3.552-3.2415-3.7515l-1.3794 2.235-0.79312 4.1107s-0.65519-3.951-1.0345-4.1905c0 0-0.89658-0.39909-1.4483 0.39911 0 0 0.68969-4.8291-0.6207-5.308 0 0-1.6207 0-2.1035 0.3991 0 0 1.2414-5.2282 3.6898-7.1438l-9.7244-1.1574 0.27588-1.5565s2.6552 1.317 9.483 2.1551c0 0-2.6553-2.7139-3.6898-7.1838 0 0 2.7932 1.7959 2.5863-0.95783 0 0-0.13793-2.0354 0.31036-4.6295 0 0 0.34484 1.4367 1.1035 0.439 0.10345-0.19956 1.5862-3.7116 2.1725-3.7515 0 0-0.68967 2.5941 0.96555 6.9842 0 0 2.5863-1.1973 3.5174-4.0708 0 0 0.41381 2.634 1.5518 2.1551 0 0 3.069-1.7161 3.8967-1.5565 0 0-2.4139 2.1152-2.2414 3.7116l1.2069-0.0799s0.17242 0.19955-0.48277 0.71838c0 0-1.7932 1.3968-1.9311 2.8336 0 0-0.27587 0.75829 2.2759 1.756 0 0 1.9311 0.15964 3.9656-0.99774 0 0-1.069 2.7937 0.31036 3.6318 0 0 2.7587 1.3569 4.4829 1.0776z"/>
   <path d="m545.62 17.261s7.345-0.87801 4.8967-5.1084c0 0 4.6208 2.1551 5.3795-0.11974 0 0 1.5518-2.5143-3.1035-4.43l1.7932-0.439s0.0344-1.4368-2.3449-3.0332c0 0 4.4139 1.9955 5.4484 1.1574 0 0 1-0.87801 1.0345-1.7959 0 0 1.6207 3.552 3.2415 3.7515l1.3794-2.235 0.79312-4.1107s0.65519 3.9511 1.0345 4.1905c0 0 0.89658 0.39909 1.4483-0.39911 0 0-0.68969 4.8291 0.6207 5.308 0 0 1.6207 0 2.1035-0.3991 0 0-1.2414 5.2282-3.6898 7.1438l9.7244 1.1574-0.27588 1.5565s-2.6552-1.317-9.483-2.1551c0 0 2.6553 2.7139 3.6898 7.1838 0 0-2.7932-1.7959-2.5863 0.95783 0 0 0.13793 2.0354-0.31036 4.6295 0 0-0.34484-1.4367-1.1035-0.439-0.10345 0.19956-1.5862 3.7116-2.1725 3.7515 0 0 0.68967-2.5941-0.96555-6.9842 0 0-2.5863 1.1973-3.5174 4.0708 0 0-0.41381-2.634-1.5518-2.1551 0 0-3.069 1.7161-3.8967 1.5565 0 0 2.4139-2.1152 2.2414-3.7116l-1.2069 0.0799s-0.17242-0.19955 0.48277-0.71838c0 0 1.7932-1.3968 1.9311-2.8336 0 0 0.27587-0.75829-2.2759-1.756 0 0-1.9311-0.15964-3.9656 0.99774 0 0 1.069-2.7937-0.31036-3.6318 0 0-2.7587-1.3569-4.4829-1.0776z"/>
   <path d="m538.62 30.99s7.345-0.87801 4.8967-5.1084c0 0 4.6208 2.1551 5.3795-0.11974 0 0 1.5518-2.5143-3.1035-4.43l1.7932-0.439s0.0344-1.4368-2.3449-3.0332c0 0 4.4139 1.9955 5.4484 1.1574 0 0 1-0.87801 1.0345-1.7959 0 0 1.6207 3.552 3.2415 3.7515l1.3794-2.235 0.79312-4.1107s0.65519 3.951 1.0345 4.1905c0 0 0.89658 0.39909 1.4483-0.39911 0 0-0.68969 4.8291 0.6207 5.308 0 0 1.6207 0 2.1035-0.3991 0 0-1.2414 5.2282-3.6898 7.1438l9.7244 1.1574-0.27588 1.5565s-2.6552-1.317-9.483-2.1551c0 0 2.6553 2.7139 3.6898 7.1838 0 0-2.7932-1.7959-2.5863 0.95783 0 0 0.13793 2.0354-0.31036 4.6295 0 0-0.34484-1.4367-1.1035-0.439-0.10345 0.19956-1.5862 3.7116-2.1725 3.7515 0 0 0.68967-2.5941-0.96555-6.9842 0 0-2.5863 1.1973-3.5174 4.0708 0 0-0.41381-2.634-1.5518-2.1551 0 0-3.069 1.7161-3.8967 1.5565 0 0 2.4139-2.1152 2.2414-3.7116l-1.2069 0.0799s-0.17242-0.19955 0.48277-0.71838c0 0 1.7932-1.3968 1.9311-2.8336 0 0 0.27587-0.75829-2.2759-1.756 0 0-1.9311-0.15964-3.9656 0.99774 0 0 1.069-2.7937-0.31036-3.6318 0 0-2.7587-1.3569-4.4829-1.0776z"/>
   <path d="m673.66 17.145s-7.345 0.87801-4.8967 5.1084c0 0-4.6208-2.1551-5.3795 0.11974 0 0-1.5518 2.5143 3.1035 4.43l-1.7932 0.439s-0.0344 1.4368 2.3449 3.0332c0 0-4.4139-1.9955-5.4484-1.1574 0 0-1 0.87801-1.0345 1.7959 0 0-1.6207-3.552-3.2415-3.7515l-1.3794 2.235-0.79312 4.1107s-0.65519-3.951-1.0345-4.1905c0 0-0.89658-0.39909-1.4483 0.39911 0 0 0.68969-4.8291-0.6207-5.308 0 0-1.6207 0-2.1035 0.3991 0 0 1.2414-5.2282 3.6898-7.1438l-9.7244-1.1574 0.27588-1.5565s2.6552 1.317 9.483 2.1551c0 0-2.6553-2.7139-3.6898-7.1837 0 0 2.7932 1.7959 2.5863-0.95783 0 0-0.13793-2.0354 0.31036-4.6295 0 0 0.34484 1.4367 1.1035 0.439 0.10345-0.19956 1.5862-3.7116 2.1725-3.7515 0 0-0.68967 2.5941 0.96555 6.9842 0 0 2.5863-1.1973 3.5174-4.0708 0 0 0.41381 2.634 1.5518 2.1551 0 0 3.069-1.7161 3.8967-1.5565 0 0-2.4139 2.1152-2.2414 3.7116l1.2069-0.0799s0.17242 0.19955-0.48277 0.71838c0 0-1.7932 1.3968-1.9311 2.8336 0 0-0.27587 0.75829 2.2759 1.756 0 0 1.9311 0.15964 3.9656-0.99774 0 0-1.069 2.7937 0.31036 3.6318 0 0 2.7587 1.3569 4.4829 1.0776z"/>
   <path d="m667.14 36.062s-7.345 0.87801-4.8967 5.1084c0 0-4.6208-2.1551-5.3795 0.11974 0 0-1.5518 2.5143 3.1035 4.43l-1.7932 0.439s-0.0344 1.4368 2.3449 3.0332c0 0-4.4139-1.9955-5.4484-1.1574 0 0-1 0.87801-1.0345 1.7959 0 0-1.6207-3.552-3.2415-3.7515l-1.3794 2.235-0.79312 4.1107s-0.65519-3.951-1.0345-4.1905c0 0-0.89658-0.39909-1.4483 0.39911 0 0 0.68969-4.8291-0.6207-5.308 0 0-1.6207 0-2.1035 0.3991 0 0 1.2414-5.2282 3.6898-7.1438l-9.7244-1.1574 0.27588-1.5565s2.6552 1.317 9.483 2.1551c0 0-2.6553-2.7139-3.6898-7.1837 0 0 2.7932 1.7959 2.5863-0.95783 0 0-0.13793-2.0354 0.31036-4.6295 0 0 0.34484 1.4367 1.1035 0.439 0.10345-0.19956 1.5862-3.7116 2.1725-3.7515 0 0-0.68967 2.5941 0.96555 6.9842 0 0 2.5863-1.1973 3.5174-4.0708 0 0 0.41381 2.634 1.5518 2.1551 0 0 3.069-1.7161 3.8967-1.5565 0 0-2.4139 2.1152-2.2414 3.7116l1.2069-0.0799s0.17242 0.19955-0.48277 0.71838c0 0-1.7932 1.3968-1.9311 2.8336 0 0-0.27587 0.75829 2.2759 1.756 0 0 1.9311 0.15964 3.9656-0.99774 0 0-1.069 2.7937 0.31036 3.6318 0 0 2.7587 1.3569 4.4829 1.0776z"/>
   <path d="m659.55 49.751s-7.345 0.87801-4.8967 5.1084c0 0-4.6208-2.1551-5.3795 0.11974 0 0-1.5518 2.5143 3.1035 4.43l-1.7932 0.439s-0.0344 1.4368 2.3449 3.0332c0 0-4.4139-1.9955-5.4484-1.1574 0 0-1 0.87801-1.0345 1.7959 0 0-1.6207-3.552-3.2415-3.7515l-1.3794 2.235-0.79312 4.1107s-0.65519-3.951-1.0345-4.1905c0 0-0.89658-0.39909-1.4483 0.39911 0 0 0.68969-4.8291-0.6207-5.308 0 0-1.6207 0-2.1035 0.3991 0 0 1.2414-5.2282 3.6898-7.1438l-9.7244-1.1574 0.27588-1.5565s2.6552 1.317 9.483 2.1551c0 0-2.6553-2.7139-3.6898-7.1837 0 0 2.7932 1.7959 2.5863-0.95783 0 0-0.13793-2.0354 0.31036-4.6295 0 0 0.34484 1.4367 1.1035 0.439 0.10345-0.19956 1.5862-3.7116 2.1725-3.7515 0 0-0.68967 2.5941 0.96555 6.9842 0 0 2.5863-1.1973 3.5174-4.0708 0 0 0.41381 2.634 1.5518 2.1551 0 0 3.069-1.7161 3.8967-1.5565 0 0-2.4139 2.1152-2.2414 3.7116l1.2069-0.0799s0.17242 0.19955-0.48277 0.71838c0 0-1.7932 1.3968-1.9311 2.8336 0 0-0.27587 0.75829 2.2759 1.756 0 0 1.9311 0.15964 3.9656-0.99774 0 0-1.069 2.7937 0.31036 3.6318 0 0 2.7587 1.3569 4.4829 1.0776z"/>
   <path d="m651.31 60.886s-7.345 0.87801-4.8967 5.1084c0 0-4.6208-2.1551-5.3795 0.11974 0 0-1.5518 2.5143 3.1035 4.43l-1.7932 0.439s-0.0344 1.4368 2.3449 3.0332c0 0-4.4139-1.9955-5.4484-1.1574 0 0-1 0.87801-1.0345 1.7959 0 0-1.6207-3.552-3.2415-3.7515l-1.3794 2.235-0.79312 4.1107s-0.65519-3.951-1.0345-4.1905c0 0-0.89658-0.39909-1.4483 0.39911 0 0 0.68969-4.8291-0.6207-5.308 0 0-1.6207 0-2.1035 0.3991 0 0 1.2414-5.2282 3.6898-7.1438l-9.7244-1.1574 0.27588-1.5565s2.6552 1.317 9.483 2.1551c0 0-2.6553-2.7139-3.6898-7.1837 0 0 2.7932 1.7959 2.5863-0.95783 0 0-0.13793-2.0354 0.31036-4.6295 0 0 0.34484 1.4367 1.1035 0.439 0.10345-0.19956 1.5862-3.7116 2.1725-3.7515 0 0-0.68967 2.5941 0.96555 6.9842 0 0 2.5863-1.1973 3.5174-4.0708 0 0 0.41381 2.634 1.5518 2.1551 0 0 3.069-1.7161 3.8967-1.5565 0 0-2.4139 2.1152-2.2414 3.7116l1.2069-0.0799s0.17242 0.19955-0.48277 0.71838c0 0-1.7932 1.3968-1.9311 2.8336 0 0-0.27587 0.75829 2.2759 1.756 0 0 1.9311 0.15964 3.9656-0.99774 0 0-1.069 2.7937 0.31036 3.6318 0 0 2.7587 1.3569 4.4829 1.0776z"/>
   <path d="m609.93 18.364s7.345-0.87801 4.8967-5.1084c0 0 4.6208 2.1551 5.3795-0.11974 0 0 1.5518-2.5143-3.1035-4.43l1.7932-0.439s0.0344-1.4368-2.3449-3.0332c0 0 4.4139 1.9955 5.4484 1.1574 0 0 1-0.87801 1.0345-1.7959 0 0 1.6207 3.552 3.2415 3.7515l1.3794-2.235 0.79312-4.1107s0.65519 3.951 1.0345 4.1905c0 0 0.89658 0.39909 1.4483-0.39911 0 0-0.68969 4.8291 0.6207 5.308 0 0 1.6207 0 2.1035-0.3991 0 0-1.2414 5.2282-3.6898 7.1438l9.7244 1.1574-0.27588 1.5565s-2.6552-1.317-9.483-2.1551c0 0 2.6553 2.7139 3.6898 7.1838 0 0-2.7932-1.7959-2.5863 0.95783 0 0 0.13793 2.0354-0.31036 4.6295 0 0-0.34484-1.4367-1.1035-0.439-0.10345 0.19956-1.5862 3.7116-2.1725 3.7515 0 0 0.68967-2.5941-0.96555-6.9842 0 0-2.5863 1.1973-3.5174 4.0708 0 0-0.41381-2.634-1.5518-2.1551 0 0-3.069 1.7161-3.8967 1.5565 0 0 2.4139-2.1152 2.2414-3.7116l-1.2069 0.0799s-0.17242-0.19955 0.48277-0.71838c0 0 1.7932-1.3968 1.9311-2.8336 0 0 0.27587-0.75829-2.2759-1.756 0 0-1.9311-0.15964-3.9656 0.99774 0 0 1.069-2.7937-0.31036-3.6318 0 0-2.7587-1.3569-4.4829-1.0776z"/>
   <path d="m599.79 36.683s7.345-0.87801 4.8967-5.1084c0 0 4.6208 2.1551 5.3795-0.11974 0 0 1.5518-2.5143-3.1035-4.43l1.7932-0.439s0.0344-1.4368-2.3449-3.0332c0 0 4.4139 1.9955 5.4484 1.1574 0 0 1-0.87801 1.0345-1.7959 0 0 1.6207 3.552 3.2415 3.7515l1.3794-2.235 0.79312-4.1107s0.65519 3.951 1.0345 4.1905c0 0 0.89658 0.39909 1.4483-0.39911 0 0-0.68969 4.8291 0.6207 5.308 0 0 1.6207 0 2.1035-0.3991 0 0-1.2414 5.2282-3.6898 7.1438l9.7244 1.1574-0.27588 1.5565s-2.6552-1.317-9.483-2.1551c0 0 2.6553 2.7139 3.6898 7.1838 0 0-2.7932-1.7959-2.5863 0.95783 0 0 0.13793 2.0354-0.31036 4.6295 0 0-0.34484-1.4367-1.1035-0.439-0.10345 0.19956-1.5862 3.7116-2.1725 3.7515 0 0 0.68967-2.5941-0.96555-6.9842 0 0-2.5863 1.1973-3.5174 4.0708 0 0-0.41381-2.634-1.5518-2.1551 0 0-3.069 1.7161-3.8967 1.5565 0 0 2.4139-2.1152 2.2414-3.7116l-1.2069 0.0799s-0.17242-0.19955 0.48277-0.71838c0 0 1.7932-1.3968 1.9311-2.8336 0 0 0.27587-0.75829-2.2759-1.756 0 0-1.9311-0.15964-3.9656 0.99774 0 0 1.069-2.7937-0.31036-3.6318 0 0-2.7587-1.3569-4.4829-1.0776z"/>
   <path d="m598.62 45.623s7.345-0.87801 4.8967-5.1084c0 0 4.6208 2.1551 5.3795-0.11974 0 0 1.5518-2.5143-3.1035-4.43l1.7932-0.439s0.0344-1.4368-2.3449-3.0332c0 0 4.4139 1.9955 5.4484 1.1574 0 0 1-0.87801 1.0345-1.7959 0 0 1.6207 3.552 3.2415 3.7515l1.3794-2.235 0.79312-4.1107s0.65519 3.951 1.0345 4.1905c0 0 0.89658 0.39909 1.4483-0.39911 0 0-0.68969 4.8291 0.6207 5.308 0 0 1.6207 0 2.1035-0.3991 0 0-1.2414 5.2282-3.6898 7.1438l9.7244 1.1574-0.27588 1.5565s-2.6552-1.317-9.483-2.1551c0 0 2.6553 2.7139 3.6898 7.1838 0 0-2.7932-1.7959-2.5863 0.95783 0 0 0.13793 2.0354-0.31036 4.6295 0 0-0.34484-1.4367-1.1035-0.439-0.10345 0.19956-1.5862 3.7116-2.1725 3.7515 0 0 0.68967-2.5941-0.96555-6.9842 0 0-2.5863 1.1973-3.5174 4.0708 0 0-0.41381-2.634-1.5518-2.1551 0 0-3.069 1.7161-3.8967 1.5565 0 0 2.4139-2.1152 2.2414-3.7116l-1.2069 0.0799s-0.17242-0.19955 0.48277-0.71838c0 0 1.7932-1.3968 1.9311-2.8336 0 0 0.27587-0.75829-2.2759-1.756 0 0-1.9311-0.15964-3.9656 0.99774 0 0 1.069-2.7937-0.31036-3.6318 0 0-2.7587-1.3569-4.4829-1.0776z"/>
   <path d="m772.57 159.9s0.87801 7.345 5.1084 4.8967c0 0-2.1551 4.6208 0.11974 5.3795 0 0 2.5143 1.5518 4.43-3.1036l0.439 1.7932s1.4368 0.0344 3.0332-2.3449c0 0-1.9955 4.4139-1.1574 5.4484 0 0 0.87801 1 1.7959 1.0345 0 0-3.552 1.6207-3.7515 3.2415l2.235 1.3794 4.1107 0.79312s-3.951 0.65519-4.1905 1.0345c0 0-0.39909 0.89658 0.39911 1.4483 0 0-4.8291-0.68969-5.308 0.6207 0 0 0 1.6207 0.3991 2.1035 0 0-5.2282-1.2414-7.1438-3.6898l-1.1574 9.7244-1.5565-0.27588s1.317-2.6552 2.1551-9.483c0 0-2.7139 2.6553-7.1838 3.6898 0 0 1.7959-2.7932-0.95783-2.5863 0 0-2.0354 0.13793-4.6295-0.31036 0 0 1.4367-0.34484 0.439-1.1035-0.19956-0.10345-3.7116-1.5862-3.7515-2.1725 0 0 2.5941 0.68967 6.9842-0.96555 0 0-1.1973-2.5863-4.0708-3.5174 0 0 2.634-0.41381 2.1551-1.5518 0 0-1.7161-3.0691-1.5565-3.8967 0 0 2.1152 2.4139 3.7116 2.2414l-0.0799-1.2069s0.19955-0.17242 0.71838 0.48277c0 0 1.3968 1.7932 2.8336 1.9311 0 0 0.75829 0.27587 1.756-2.2759 0 0 0.15964-1.9311-0.99774-3.9656 0 0 2.7937 1.069 3.6318-0.31036 0 0 1.3569-2.7587 1.0776-4.4829z"/>
   <path d="m17.229 61.922s0.87801 7.345 5.1084 4.8967c0 0-2.1551 4.6208 0.11974 5.3795 0 0 2.5143 1.5518 4.43-3.1035l0.439 1.7932s1.4368 0.0344 3.0332-2.3449c0 0-1.9955 4.4139-1.1574 5.4484 0 0 0.87801 1 1.7959 1.0345 0 0-3.552 1.6207-3.7515 3.2415l2.235 1.3794 4.1107 0.79312s-3.951 0.65519-4.1905 1.0345c0 0-0.39909 0.89658 0.39911 1.4483 0 0-4.8291-0.68969-5.308 0.6207 0 0 0 1.6207 0.3991 2.1035 0 0-5.2282-1.2414-7.1438-3.6898l-1.1574 9.7244-1.5565-0.27588s1.317-2.6552 2.1551-9.483c0 0-2.7139 2.6553-7.1838 3.6898 0 0 1.7959-2.7932-0.95783-2.5863 0 0-2.0354 0.13793-4.6295-0.31036 0 0 1.4367-0.34484 0.439-1.1035-0.19956-0.10345-3.7116-1.5862-3.7515-2.1725 0 0 2.5941 0.68967 6.9842-0.96555 0 0-1.1973-2.5863-4.0708-3.5174 0 0 2.634-0.41381 2.1551-1.5518 0 0-1.7161-3.069-1.5565-3.8967 0 0 2.1152 2.4139 3.7116 2.2414l-0.0799-1.2069s0.19955-0.17242 0.71838 0.48277c0 0 1.3968 1.7932 2.8336 1.9311 0 0 0.75829 0.27587 1.756-2.2759 0 0 0.15964-1.9311-0.99774-3.9656 0 0 2.7937 1.069 3.6318-0.31036 0 0 1.3569-2.7587 1.0776-4.4829z"/>
   <path d="m42.468 18.49s-7.345 0.87801-4.8967 5.1084c0 0-4.6208-2.1551-5.3795 0.11974 0 0-1.5518 2.5143 3.1035 4.43l-1.7932 0.439s-0.0344 1.4368 2.3449 3.0332c0 0-4.4139-1.9955-5.4484-1.1574 0 0-1 0.87801-1.0345 1.7959 0 0-1.6207-3.552-3.2415-3.7515l-1.3794 2.235-0.79312 4.1107s-0.65519-3.951-1.0345-4.1905c0 0-0.89658-0.39909-1.4483 0.39911 0 0 0.68969-4.8291-0.6207-5.308 0 0-1.6207 0-2.1035 0.3991 0 0 1.2414-5.2282 3.6898-7.1438l-9.7244-1.1574 0.27588-1.5565s2.6552 1.317 9.483 2.1551c0 0-2.6553-2.7139-3.6898-7.1838 0 0 2.7932 1.7959 2.5863-0.95783 0 0-0.13793-2.0354 0.31036-4.6295 0 0 0.34484 1.4367 1.1035 0.439 0.10345-0.19956 1.5862-3.7116 2.1725-3.7515 0 0-0.68967 2.5941 0.96555 6.9842 0 0 2.5863-1.1973 3.5174-4.0708 0 0 0.41381 2.634 1.5518 2.1551 0 0 3.069-1.7161 3.8967-1.5565 0 0-2.4139 2.1152-2.2414 3.7116l1.2069-0.0799s0.17242 0.19955-0.48277 0.71838c0 0-1.7932 1.3968-1.9311 2.8336 0 0-0.27587 0.75829 2.2759 1.756 0 0 1.9311 0.15964 3.9656-0.99774 0 0-1.069 2.7937 0.31036 3.6318 0 0 2.7587 1.3569 4.4829 1.0776z"/>
   <path d="m42.882 40.76s-7.345 0.87801-4.8967 5.1084c0 0-4.6208-2.1551-5.3795 0.11974 0 0-1.5518 2.5143 3.1035 4.43l-1.7932 0.439s-0.0344 1.4368 2.3449 3.0332c0 0-4.4139-1.9955-5.4484-1.1574 0 0-1 0.87801-1.0345 1.7959 0 0-1.6207-3.552-3.2415-3.7515l-1.3794 2.235-0.79312 4.1107s-0.65519-3.951-1.0345-4.1905c0 0-0.89658-0.39909-1.4483 0.39911 0 0 0.68969-4.8291-0.6207-5.308 0 0-1.6207 0-2.1035 0.3991 0 0 1.2414-5.2282 3.6898-7.1438l-9.7244-1.1574 0.27588-1.5565s2.6552 1.317 9.483 2.1551c0 0-2.6553-2.7139-3.6898-7.1838 0 0 2.7932 1.7959 2.5863-0.95783 0 0-0.13793-2.0354 0.31036-4.6295 0 0 0.34484 1.4367 1.1035 0.439 0.10345-0.19956 1.5862-3.7116 2.1725-3.7515 0 0-0.68967 2.5941 0.96555 6.9842 0 0 2.5863-1.1973 3.5174-4.0708 0 0 0.41381 2.634 1.5518 2.1551 0 0 3.069-1.7161 3.8967-1.5565 0 0-2.4139 2.1152-2.2414 3.7116l1.2069-0.0799s0.17242 0.19955-0.48277 0.71838c0 0-1.7932 1.3968-1.9311 2.8336 0 0-0.27587 0.75829 2.2759 1.756 0 0 1.9311 0.15964 3.9656-0.99774 0 0-1.069 2.7937 0.31036 3.6318 0 0 2.7587 1.3569 4.4829 1.0776z"/>
   <path d="m49.886 57.337s-7.345 0.87801-4.8967 5.1084c0 0-4.6208-2.1551-5.3795 0.11974 0 0-1.5518 2.5143 3.1035 4.43l-1.7932 0.439s-0.0344 1.4368 2.3449 3.0332c0 0-4.4139-1.9955-5.4484-1.1574 0 0-1 0.87801-1.0345 1.7959 0 0-1.6207-3.552-3.2415-3.7515l-1.3794 2.235-0.79312 4.1107s-0.65519-3.951-1.0345-4.1905c0 0-0.89658-0.39909-1.4483 0.39911 0 0 0.68969-4.8291-0.6207-5.308 0 0-1.6207 0-2.1035 0.3991 0 0 1.2414-5.2282 3.6898-7.1438l-9.7244-1.1574 0.27588-1.5565s2.6552 1.317 9.483 2.1551c0 0-2.6553-2.7139-3.6898-7.1838 0 0 2.7932 1.7959 2.5863-0.95783 0 0-0.13793-2.0354 0.31036-4.6295 0 0 0.34484 1.4367 1.1035 0.439 0.10345-0.19956 1.5862-3.7116 2.1725-3.7515 0 0-0.68967 2.5941 0.96555 6.9842 0 0 2.5863-1.1973 3.5174-4.0708 0 0 0.41381 2.634 1.5518 2.1551 0 0 3.069-1.7161 3.8967-1.5565 0 0-2.4139 2.1152-2.2414 3.7116l1.2069-0.0799s0.17242 0.19955-0.48277 0.71838c0 0-1.7932 1.3968-1.9311 2.8336 0 0-0.27587 0.75829 2.2759 1.756 0 0 1.9311 0.15964 3.9656-0.99774 0 0-1.069 2.7937 0.31036 3.6318 0 0 2.7587 1.3569 4.4829 1.0776z"/>
   <path d="m90.283 15.646s-7.345 0.87801-4.8967 5.1084c0 0-4.6208-2.1551-5.3795 0.11974 0 0-1.5518 2.5143 3.1035 4.43l-1.7932 0.439s-0.0344 1.4368 2.3449 3.0332c0 0-4.4139-1.9955-5.4484-1.1574 0 0-1 0.87801-1.0345 1.7959 0 0-1.6207-3.552-3.2415-3.7515l-1.3794 2.235-0.79312 4.1107s-0.65519-3.951-1.0345-4.1905c0 0-0.89658-0.39909-1.4483 0.39911 0 0 0.68969-4.8291-0.6207-5.308 0 0-1.6207 0-2.1035 0.3991 0 0 1.2414-5.2282 3.6898-7.1438l-9.7244-1.1574 0.27588-1.5565s2.6552 1.317 9.483 2.1551c0 0-2.6553-2.7139-3.6898-7.1838 0 0 2.7932 1.7959 2.5863-0.95783 0 0-0.13793-2.0354 0.31036-4.6295 0 0 0.34484 1.4367 1.1035 0.439 0.10345-0.19956 1.5862-3.7116 2.1725-3.7515 0 0-0.68967 2.5941 0.96555 6.9842 0 0 2.5863-1.1973 3.5174-4.0708 0 0 0.41381 2.634 1.5518 2.1551 0 0 3.069-1.7161 3.8967-1.5565 0 0-2.4139 2.1152-2.2414 3.7116l1.2069-0.0799s0.17242 0.19955-0.48277 0.71838c0 0-1.7932 1.3968-1.9311 2.8336 0 0-0.27587 0.75829 2.2759 1.756 0 0 1.9311 0.15964 3.9656-0.99774 0 0-1.069 2.7937 0.31036 3.6318 0 0 2.7587 1.3569 4.4829 1.0776z"/>
   <path d="m100.87 36.638s-7.3451 0.87801-4.8967 5.1084c0 0-4.6208-2.1551-5.3795 0.11974 0 0-1.5518 2.5143 3.1035 4.43l-1.7932 0.439s-0.0344 1.4368 2.3449 3.0332c0 0-4.4139-1.9955-5.4484-1.1574 0 0-1 0.87801-1.0345 1.7959 0 0-1.6207-3.552-3.2415-3.7515l-1.3794 2.235-0.79312 4.1107s-0.65519-3.951-1.0345-4.1905c0 0-0.89658-0.39909-1.4483 0.39911 0 0 0.68969-4.8291-0.6207-5.308 0 0-1.6207 0-2.1035 0.3991 0 0 1.2414-5.2282 3.6898-7.1438l-9.7244-1.1574 0.27588-1.5565s2.6552 1.317 9.483 2.1551c0 0-2.6553-2.7139-3.6898-7.1838 0 0 2.7932 1.7959 2.5863-0.95783 0 0-0.13793-2.0354 0.31036-4.6295 0 0 0.34484 1.4367 1.1035 0.439 0.10345-0.19956 1.5862-3.7116 2.1725-3.7515 0 0-0.68967 2.5941 0.96555 6.9842 0 0 2.5863-1.1973 3.5174-4.0708 0 0 0.41381 2.634 1.5518 2.1551 0 0 3.069-1.7161 3.8967-1.5565 0 0-2.4139 2.1152-2.2414 3.7116l1.2069-0.0799s0.17242 0.19955-0.48277 0.71838c0 0-1.7932 1.3968-1.9311 2.8336 0 0-0.27587 0.75829 2.2759 1.756 0 0 1.9311 0.15964 3.9656-0.99774 0 0-1.069 2.7937 0.31036 3.6318 0 0 2.7587 1.3569 4.4829 1.0776z"/>
   <path d="m95.353 63.019s-7.3451 0.87801-4.8967 5.1084c0 0-4.6208-2.1551-5.3795 0.11974 0 0-1.5518 2.5143 3.1035 4.43l-1.7932 0.439s-0.0344 1.4368 2.3449 3.0332c0 0-4.4139-1.9955-5.4484-1.1574 0 0-1 0.87801-1.0345 1.7959 0 0-1.6207-3.552-3.2415-3.7515l-1.3794 2.235-0.79312 4.1107s-0.65519-3.951-1.0345-4.1905c0 0-0.89658-0.39909-1.4483 0.39911 0 0 0.68969-4.8291-0.6207-5.308 0 0-1.6207 0-2.1035 0.3991 0 0 1.2414-5.2282 3.6898-7.1438l-9.7244-1.1574 0.27588-1.5565s2.6552 1.317 9.483 2.1551c0 0-2.6553-2.7139-3.6898-7.1838 0 0 2.7932 1.7959 2.5863-0.95783 0 0-0.13793-2.0354 0.31036-4.6295 0 0 0.34484 1.4367 1.1035 0.439 0.10345-0.19956 1.5862-3.7116 2.1725-3.7515 0 0-0.68967 2.5941 0.96555 6.9842 0 0 2.5863-1.1973 3.5174-4.0708 0 0 0.41381 2.634 1.5518 2.1551 0 0 3.069-1.7161 3.8967-1.5565 0 0-2.4139 2.1152-2.2414 3.7116l1.2069-0.0799s0.17242 0.19955-0.48277 0.71838c0 0-1.7932 1.3968-1.9311 2.8336 0 0-0.27587 0.75829 2.2759 1.756 0 0 1.9311 0.15964 3.9656-0.99774 0 0-1.069 2.7937 0.31036 3.6318 0 0 2.7587 1.3569 4.4829 1.0776z"/>
   <path d="m82.49 73.954s-7.345 0.87801-4.8967 5.1084c0 0-4.6208-2.1551-5.3795 0.11974 0 0-1.5518 2.5143 3.1035 4.43l-1.7932 0.439s-0.0344 1.4368 2.3449 3.0332c0 0-4.4139-1.9955-5.4484-1.1574 0 0-1 0.87801-1.0345 1.7959 0 0-1.6207-3.552-3.2415-3.7515l-1.3794 2.235-0.79312 4.1107s-0.65519-3.951-1.0345-4.1905c0 0-0.89658-0.39909-1.4483 0.39911 0 0 0.68969-4.8291-0.6207-5.308 0 0-1.6207 0-2.1035 0.3991 0 0 1.2414-5.2282 3.6898-7.1438l-9.7244-1.1574 0.27588-1.5565s2.6552 1.317 9.483 2.1551c0 0-2.6553-2.7139-3.6898-7.1838 0 0 2.7932 1.7959 2.5863-0.95783 0 0-0.13793-2.0354 0.31036-4.6295 0 0 0.34484 1.4367 1.1035 0.439 0.10345-0.19956 1.5862-3.7116 2.1725-3.7515 0 0-0.68967 2.5941 0.96555 6.9842 0 0 2.5863-1.1973 3.5174-4.0708 0 0 0.41381 2.634 1.5518 2.1551 0 0 3.069-1.7161 3.8967-1.5565 0 0-2.4139 2.1152-2.2414 3.7116l1.2069-0.0799s0.17242 0.19955-0.48277 0.71838c0 0-1.7932 1.3968-1.9311 2.8336 0 0-0.27587 0.75829 2.2759 1.756 0 0 1.9311 0.15964 3.9656-0.99774 0 0-1.069 2.7937 0.31036 3.6318 0 0 2.7587 1.3569 4.4829 1.0776z"/>
   <path d="m35.397 19.468s7.345-0.87801 4.8967-5.1084c0 0 4.6208 2.1551 5.3795-0.11974 0 0 1.5518-2.5143-3.1035-4.43l1.7932-0.439s0.0344-1.4368-2.3449-3.0332c0 0 4.4139 1.9955 5.4484 1.1574 0 0 1-0.87801 1.0345-1.7959 0 0 1.6207 3.552 3.2415 3.7515l1.3794-2.235 0.79312-4.1107s0.65519 3.951 1.0345 4.1905c0 0 0.89658 0.39909 1.4483-0.39911 0 0-0.68969 4.8291 0.6207 5.308 0 0 1.6207 0 2.1035-0.3991 0 0-1.2414 5.2282-3.6898 7.1438l9.7244 1.1574-0.27588 1.5565s-2.6552-1.317-9.483-2.1551c0 0 2.6553 2.7139 3.6898 7.1838 0 0-2.7932-1.7959-2.5863 0.95783 0 0 0.13793 2.0354-0.31036 4.6295 0 0-0.34484-1.4367-1.1035-0.439-0.10345 0.19956-1.5862 3.7116-2.1725 3.7515 0 0 0.68967-2.5941-0.96555-6.9842 0 0-2.5863 1.1973-3.5174 4.0708 0 0-0.41381-2.634-1.5518-2.1551 0 0-3.069 1.7161-3.8967 1.5565 0 0 2.4139-2.1152 2.2414-3.7116l-1.2069 0.0799s-0.17242-0.19955 0.48277-0.71838c0 0 1.7932-1.3968 1.9311-2.8336 0 0 0.27587-0.75829-2.2759-1.756 0 0-1.9311-0.15964-3.9656 0.99774 0 0 1.069-2.7937-0.31036-3.6318 0 0-2.7587-1.3569-4.4829-1.0776z"/>
   <path d="m42.638 40.819s7.345-0.87801 4.8967-5.1084c0 0 4.6208 2.1551 5.3795-0.11974 0 0 1.5518-2.5143-3.1035-4.43l1.7932-0.439s0.0344-1.4368-2.3449-3.0332c0 0 4.4139 1.9955 5.4484 1.1574 0 0 1-0.87801 1.0345-1.7959 0 0 1.6207 3.552 3.2415 3.7515l1.3794-2.235 0.79312-4.1107s0.65519 3.951 1.0345 4.1905c0 0 0.89658 0.39909 1.4483-0.39911 0 0-0.68969 4.8291 0.6207 5.308 0 0 1.6207 0 2.1035-0.3991 0 0-1.2414 5.2282-3.6898 7.1438l9.7244 1.1574-0.27588 1.5565s-2.6552-1.317-9.483-2.1551c0 0 2.6553 2.7139 3.6898 7.1838 0 0-2.7932-1.7959-2.5863 0.95783 0 0 0.13793 2.0354-0.31036 4.6295 0 0-0.34484-1.4367-1.1035-0.439-0.10345 0.19956-1.5862 3.7116-2.1725 3.7515 0 0 0.68967-2.5941-0.96555-6.9842 0 0-2.5863 1.1973-3.5174 4.0708 0 0-0.41381-2.634-1.5518-2.1551 0 0-3.069 1.7161-3.8967 1.5565 0 0 2.4139-2.1152 2.2414-3.7116l-1.2069 0.0799s-0.17242-0.19955 0.48277-0.71838c0 0 1.7932-1.3968 1.9311-2.8336 0 0 0.27587-0.75829-2.2759-1.756 0 0-1.9311-0.15964-3.9656 0.99774 0 0 1.069-2.7937-0.31036-3.6318 0 0-2.7587-1.3569-4.4829-1.0776z"/>
   <path d="m34.086 52.393s7.345-0.87801 4.8967-5.1084c0 0 4.6208 2.1551 5.3795-0.11974 0 0 1.5518-2.5143-3.1035-4.43l1.7932-0.439s0.0344-1.4368-2.3449-3.0332c0 0 4.4139 1.9955 5.4484 1.1574 0 0 1-0.87801 1.0345-1.7959 0 0 1.6207 3.552 3.2415 3.7515l1.3794-2.235 0.79312-4.1107s0.65519 3.951 1.0345 4.1905c0 0 0.89658 0.39909 1.4483-0.39911 0 0-0.68969 4.8291 0.6207 5.308 0 0 1.6207 0 2.1035-0.3991 0 0-1.2414 5.2282-3.6898 7.1438l9.7244 1.1574-0.27588 1.5565s-2.6552-1.317-9.483-2.1551c0 0 2.6553 2.7139 3.6898 7.1838 0 0-2.7932-1.7959-2.5863 0.95783 0 0 0.13793 2.0354-0.31036 4.6295 0 0-0.34484-1.4367-1.1035-0.439-0.10345 0.19956-1.5862 3.7116-2.1725 3.7515 0 0 0.68967-2.5941-0.96555-6.9842 0 0-2.5863 1.1973-3.5174 4.0708 0 0-0.41381-2.634-1.5518-2.1551 0 0-3.0691 1.7161-3.8967 1.5565 0 0 2.4139-2.1152 2.2414-3.7116l-1.2069 0.0799s-0.17242-0.19955 0.48277-0.71838c0 0 1.7932-1.3968 1.9311-2.8336 0 0 0.27587-0.75829-2.2759-1.756 0 0-1.9311-0.15964-3.9656 0.99774 0 0 1.069-2.7937-0.31036-3.6318 0 0-2.7587-1.3569-4.4829-1.0776z"/>
  </g>
 </g>
</svg>
