<?xml version="1.0" encoding="UTF-8"?>
<!-- Created with Inkscape (http://www.inkscape.org/) -->
<svg width="1200" height="720" version="1.1" xmlns="http://www.w3.org/2000/svg" xmlns:cc="http://creativecommons.org/ns#" xmlns:dc="http://purl.org/dc/elements/1.1/" xmlns:rdf="http://www.w3.org/1999/02/22-rdf-syntax-ns#">
 <metadata>
  <rdf:RDF>
   <cc:Work rdf:about="">
    <dc:format>image/svg+xml</dc:format>
    <dc:type rdf:resource="http://purl.org/dc/dcmitype/StillImage"/>
    <dc:title/>
   </cc:Work>
  </rdf:RDF>
 </metadata>
 <g transform="matrix(12.14 0 0 8.102 -723.09 -458.53)" fill="#f9f9f9" stroke="#000">
  <path d="m59.892 57.012-0.01847 25.737s1.7706-0.97155 5.5331-0.65885c0 0 15.534 2.0314 21.273 4.793 0 0 8.7478 3.4727 13.543 0.49609l14.139 4.1507 2.7285 0.04961s3.0096-2.4805 5.4074-2.3151c0 0 2.0505-2.5301 2.8608-3.5553l4.2829-0.41341s0.0827-1.2733 3.4396-1.6867c0 0 0.84336-0.38034 0.77722-1.2402 0 0-0.0496-0.49609 0.24804-0.57878 0 0 0.41342-0.38034 0.33073-1.3229l0.71107-0.77721 0.0331-1.9017 0.41342-0.38034-0.0331-1.5214s0.51263-0.23151 0.69453 0.06615c0 0 0.1819 1.0253 0.62838 0.74414l0.82682-0.44648s1.0583 2.3978 1.5214 2.5632c0.46302 0.16536 0.95911 0 1.1245 0.16536 0.16536 0.16536 1.141 0.87643 1.4552 1.3229 0 0 0.14883 1.4552 0.97566 1.819 0.82682 0.3638 1.3725-0.79375 1.3725-0.79375s0.52917-0.41341 0.8599 0.69453l-0.0496 1.6206 2.0009 2.2655 1.1906 0.66146v0.69453l2.1001 0.5457-0.0661 0.99219 3.0096 1.9017 1.4056 0.11576 1.2072-1.7694 1.0583 1.4387 0.16536 0.41341h1.0749l0.094-34.06z" stroke-width=".26458px"/>
  <path d="m115.52 91.433-1.141-0.0232-1.3229-0.38744c-0.72761-0.21309-1.8959-0.55626-2.5962-0.7626s-2.7765-0.8164-4.6137-1.3557-3.8427-1.1282-4.4566-1.3087c-0.61391-0.18051-1.138-0.3282-1.1647-0.3282s-0.19408 0.08111-0.37206 0.18024c-0.82207 0.45789-1.8509 0.76763-3.0881 0.92968-0.54548 0.07145-2.0146 0.09959-2.676 0.05127-1.7967-0.13126-3.6444-0.48284-5.5893-1.0635-0.93432-0.27896-1.58-0.50777-2.0505-0.72664-0.91533-0.42579-2.4552-0.96805-3.7042-1.3044-0.24557-0.06614-0.58787-0.16353-0.76068-0.21642-0.77372-0.23684-3.3003-0.83591-5.1428-1.2194-2.1854-0.45483-5.3524-1.027-7.7165-1.3941-3.1117-0.48318-3.6814-0.55307-4.752-0.58308-1.5093-0.0423-2.8715 0.12507-3.9639 0.48702-0.2156 0.07144-0.39978 0.12989-0.40929 0.12989-0.01939 0 0.01198-25.366 0.03141-25.385 0.0068-0.0068 5.682-0.02011 12.612-0.02953 12.364-0.0168 21.608-0.03514 34.477-0.06842 13.989-0.03618 50.936-0.08938 50.952-0.07336 0.0193 0.01931-0.043 25.92-0.0738 30.676l-0.0202 3.1181-0.86438-0.0184-0.0681-0.16729c-0.0375-0.09201-0.32788-0.52006-0.64535-0.95122-0.45281-0.61498-0.58559-0.77494-0.6161-0.74222-0.0214 0.02294-0.30733 0.43649-0.63544 0.91898l-0.59656 0.87725-1.3119-0.10692-2.9294-1.846 0.0162-0.13229c9e-3 -0.07276 0.0257-0.30344 0.0373-0.51263l0.0211-0.38034-2.0731-0.5344-0.033-0.6819-0.60684-0.33443-0.60683-0.33443-1.9867-2.2414 0.021-0.38412c0.0116-0.21127 0.0223-0.5776 0.0239-0.81407 2e-3 -0.36518-8e-3 -0.45876-0.069-0.62119-0.14113-0.37558-0.39591-0.61905-0.64782-0.61905-0.2185 0-0.29715 0.04676-0.42849 0.25472-0.25465 0.40324-0.60362 0.67067-0.87515 0.67067-0.30616 0-0.66807-0.30807-0.88033-0.74937-0.0977-0.20313-0.22823-0.65544-0.29896-1.0359-0.0205-0.11046-0.5419-0.6201-1.1147-1.0896-0.50952-0.41766-0.53309-0.42768-1.0133-0.43045-0.30908-0.0019-0.51239-0.04478-0.608-0.12857-0.21054-0.18452-0.57139-0.79541-1.0538-1.784-0.20157-0.41309-0.36894-0.75471-0.37193-0.75916-3e-3 -0.0044-0.22751 0.11144-0.49894 0.25753s-0.52288 0.26136-0.55876 0.25614c-0.0795-0.01156-0.19713-0.21082-0.2692-0.45597-0.0862-0.29325-0.10508-0.32746-0.21885-0.39683-0.13441-0.08195-0.38364-0.08693-0.61479-0.01228l-0.16695 0.05392 0.0394 1.5591-0.41019 0.36802-0.0204 0.96002-0.0203 0.96002-0.70459 0.77029-4e-3 0.32451c-5e-3 0.46177-0.095 0.73748-0.30449 0.93636-0.0862 0.08186-0.17692 0.18603-0.20151 0.23151-0.0246 0.04547-0.055 0.24775-0.0677 0.4495-0.0262 0.4195-0.0854 0.58892-0.28139 0.80585-0.22858 0.25301-0.35504 0.31593-0.75803 0.37712-1.6113 0.24467-2.7202 0.77122-3.0818 1.4633-0.0512 0.09808-0.10806 0.17945-0.12625 0.1808-0.0182 0.0013-0.97028 0.09441-2.1158 0.20678l-2.0827 0.20431-0.55681 0.69453c-0.30625 0.38199-0.94898 1.1797-1.4283 1.7728l-0.87147 1.0783-0.42471 0.01955c-1.094 0.05041-2.4425 0.58619-3.9304 1.5616-0.25466 0.16694-0.59647 0.40257-0.75958 0.52362-0.28719 0.21314-0.30235 0.21992-0.47956 0.21451-0.10064-0.0031-0.69645-0.01603-1.324-0.0288z" opacity=".323" stroke-width=".033073"/>
 </g>
 <g transform="matrix(12.14 0 0 8.102 -723.09 -458.53)" stroke="#000" stroke-width=".26458px">
  <path d="m155.88 89.033s0.91777 1.9182 1.2237 1.819l1.1162 0.04134 0.0496 3.3321s-7.4331-0.05788-8.1525 1.6536c0 0-10.087-0.08268-10.807 0.24805 0 0-1.8521 1.2733-2.745 1.1658l-3.8034 0.19017s-1.1741-1.6867-2.6458-1.5792c0 0-3.1171 0.45475-4.7294 0.20671 0 0-0.22324-0.39688-2.3151-0.45475 0 0-5.5645-3.729-8.751-4.1137 0 0 1.9647-0.34342 2.7502-0.13672 0 0 4.3223-2.3889 5.298-2.1574 0 0 2.6789-2.4309 2.9766-3.423 0 0-0.0248-0.28939 0.63666-0.33073 0 0 2.8773 0.1571 3.266-0.09922 0 0 0.60358-0.14883 0.99218-0.98392 0 0 0.091-0.81029 2.8691-0.7276 0.0248 0.01654 0.87643-0.06615 0.75241-1.6536 0 0 0.50436-0.3638 0.44648-0.59531l0.10749-1.017s0.53743-0.38861 0.57878-0.678l0.0744-2.0505 0.4961-0.26458 0.0662-1.4717s0.12402-0.28112 0.38861-0.01654c0 0 0.58699 0.97566 0.89291 0.78548 0 0 0.41342-0.7028 0.63666-0.49609 0 0 1.3477 2.497 1.6123 2.497 0 0 1.356-0.09095 1.8356 0.80202 0 0 0.42168 0.38861 1.8025 2.6458 0 0 1.017-0.30592 1.571-0.84336 0 0 0.42995-0.0083 0.59531 0.59531l-0.0992 1.695s1.4966 2.0588 3.175 2.8691c0.0661-0.01654-0.28114 0.58704 0.0496 0.68626 0.0413 0.02481 1.0418 0.62838 2.0505 0.64492l0.0413 1.0666 2.9104 1.7446s0.97565-0.20671 1.4056 0.1819c0 0 1.3395-1.2816 1.3808-1.7777" fill="#c4e39f"/>
  <g fill="#b0cc8f">
   <path d="m135.6 76.653s0.70702 0.23109 0.71286 1.1373c6e-3 0.90621-0.11693 0.90036 0.63143 0.99975 0.74835 0.09939-0.74251 1.9235-0.74251 1.9235s-0.0234 0.19878 1.2278 0.02923c0 0 1.1108 1.6721 0.0877 1.8241 0 0-0.28648 0.65481-1.6487 0.61388 0 0 2.305 0.44434 2.2451 0.46772 0 0 0.97637 0.76589-2.4965 0.68989 0 0 0.12862 0.91206-0.11693 0.98806 0 0-0.71912 0.26309-1.2862 0.05847 0 0-0.68988 1.4441-0.19878 2.0229 0 0 4.3557 1.2512 4.1627 1.6312 0 0-2.3854-0.07016-2.6602-0.1637 0-0.01754-0.90037 0.05847-1.3856 0.27479 0 0-2.9466-0.6665-0.0935 1.6195 0 0 4.2153-0.29817 4.075 0.83021 0 0 4.4901-0.31571 4.5194 0.076 0 0 0.28648 0.61389-3.847 0.83021 0 0-2.9934 0.40926-0.9179 0.93544l2.3854 0.04677s-0.49111 0.63727 0.49111 0.7542c0 0 4.2387 0.5028 4.0516 0.66066 0 0 1.2862 0.81851-5.4373 0.55542 0 0-2.1457 1.7773-2.5958 1.8475l-4.0099 0.17717s-1.2217-1.7126-2.6458-1.5792c0 0-4.1 0.48467-4.7294 0.20671 0 0-0.77351-0.55553-2.3151-0.45475 0 0-6.5374-3.9596-8.7007-4.0941 0 0 0.81698-0.31066 2.6686-0.13676-2e-5 6e-6 4.1831-2.2433 5.3534-2.2165 0.85075-0.50272 2.9734-2.8032 2.9524-3.3836 0 0 0.10182-0.46926 1.0314-0.33479 0 0 3.198 0.80682 4.0458-1.3856 0 0 0.49148-0.44456 2.6867-0.42106 0 0 0.80616 0.13229 0.75241-1.6536 0 0 0.36793-0.23151 0.44648-0.59531l0.10749-1.017 0.57878-0.678 0.0744-2.0505 0.4961-0.26458z"/>
   <path d="m140.55 84.895 1.1865-0.44648 0.0662-0.57464s1.4428-1.0873 1.5048-0.79789c0.062 0.28939 0.61598 0.10335 0.9095 0.33073 0 0 0.22629 0.67386 0.18289 0.78548 0 0-0.0837 0.04134-0.15709 0.08268-0.0207 0.12402 0.12502 0.42581 0.12502 0.42581s0.42168 1.0335 0.339 1.2072c-0.0827 0.17363-0.91983-0.43408-0.91983-0.43408s-0.40513-0.73174-0.73586-0.45475c0 0-0.15296 1.0459-0.37207 0.78548 0 0-0.39275-0.89711-2.1291-0.90951z"/>
   <path d="m149.59 88.306c0 0.01461-0.54372 0.11693-0.71327 0.26309 0 0-1.0231 0.36541-1.0816 0.43849s-0.38294 0.52326 0.0263 0.4151c0.40926-0.10816 1.1985-0.5525 1.1985-0.5525s0.5408 0.15201 0.67235-0.0088c0.13155-0.16078 0.22509-0.66943 0.16078-0.64896-0.0643 0.02046-0.2631 0.09354-0.2631 0.09354z"/>
   <path d="m156.06 90.53-0.66066 0.99391s-0.34494-0.14032-0.49111-0.07016c-0.14616 0.07016-1.0991 0.99391-1.1576 1.2395 0 0-1.105-0.04677-0.85943 0.30402 0 0 1.5902 0.09354 1.6195 0.30986 0 0 0.87113 0.26309 1.181-0.23386 0 0-0.27479-0.73082 0.92375-0.49695 0 0 0.64896 0.27479 0.13447-0.58465 0 0-0.94714-0.60219 0.0877-0.43849 0.60219-0.45018-0.77759-1.0231-0.77759-1.0231z"/>
  </g>
  <path d="m126.21 87.595s-0.75241 1.7033 0.59531 1.8521c0 0 1.2237 0.21497 1.3643 0.56224 0 0 0.30592 1.9761 0.92604 2.0423 0 0 7.8383 1.8355 7.7556 2.4805 0 0-2.6376-0.10749-2.0423 0.66146 0 0 3.6959 0.71107 3.6959 0.93431l-1.7365 1.1788-4.0099 0.17717s-1.3642-1.6412-2.344-1.6123c0 0-4.2292 0.47129-4.808 0.35553 0 0-1.1493-0.66973-2.5384-0.57051 0 0-2.1289-2.5011-5.5811-3.5719 0.17011-0.48239 1.9867-1.9142 5.118-2.3812 0 0 2.1001-2.2986 2.4474-2.4391 0 0 1.265-0.62012 1.1576 0.33073z" fill="#a0b980"/>
  <path d="m158.11 94.365s-5.3203-0.54373-8.1267 1.5026c0 0-1.0699 3e-6 -1.5727 0.29233 0 0-0.8419 0.09354-1.5201-0.23386 0 0-3.8002-0.21048-7.6005 0.23386 0 0-0.6782 0.80682-3.2507 1.4266l-3.274-0.10524s-1.2512-1.4733-2.6543-1.6136c0 0-3.7067 0.60804-6.7469-0.12862 0 0-1.2278-0.3274-2.1398-1.0524 0 0-2.3386-2.0229-4.3849-2.3971l-14.874-4.5252s-1.0991-0.5028-1.3798-0.40926c0 0-0.63143 0-0.92375 0.11693 0 0-1.8943 1.3447-3.4494 1.4032 0 0-6.0804-0.40926-9.296-1.7773 0 0-18.194-5.2034-21.27-4.8526 0 0-3.087-0.78343-5.7881 0.45603l-0.15201 6.6066 0.1637 9.0738 0.33669 8.2082s28.279 1.7029 28.972 1.819c0 0 8.8253 1.276 12.323 3.4257l41.056-6e-3 3.1335-1.3231 1.0997-1.2402 4.6302-2.9104 0.1819-1.017s0.67799-1.3973 6.1846-1.7942z" fill="#a1bf81"/>
  <g fill="#829a68">
   <path d="m158.1 94.59-5.5397 0.76068s4.6137-0.0248 4.0349 0.29766c0 0-3.8199 1.4469-3.9026 2.0009 0 0 2.5632 1.3312 2.9104 2.5466 0 0-0.41341 2.158-0.16536 2.2242l2.3482 1.1245z"/>
   <path d="m139.17 96.863s-0.58705 0.93431-2.3564 1.0666c0 0-0.2067 0.06615-0.2067 0.47956l8e-3 7.7473s0.83536-0.25631 0.83536 0.339c0 0-0.1571 3.1337 0.091 2.8277 0 0 0.59526-0.71934 0.76063-0.42995 0 0 0.58704 1.5379 2.0836 1.0583 0 0 0.66146 1.4966 2.0671 1.4883l0.76894 0.0992 2.4639-1.0335 1.0997-1.2402 4.6302-2.9104 0.1819-1.017 0.9095-0.71934s-0.1819-0.86816-0.62011-0.7028c0 0-2.5466 1.4222-5.3578 0.62013 0 0-0.41341-0.41341 0-1.5296 0 0-0.81855-0.94258-1.5875-0.0661 0 0-1.2981 0.339-1.1989-0.8847 0 0-1.3064 0.12403-1.017-0.62011 0 0 1.2898-0.62012 1.0583-0.95085 0 0-0.91777-1.3477-1.4139-1.0583 0 0-2.4474 1.695-2.9518-0.45475 0 0 1.6123-0.44648 1.4635-0.51263 0 0-1.5627-0.24805-1.7115-1.5958z"/>
   <path d="m130.09 96.552s-0.79513 0.98806-0.89452 1.4733c0 0-1.7715 0.22217-1.713 0.51449 0 0 2.0054-0.01169 2.2977 0.43849 0 0 0.90036-0.23386 1.0699-1.1693 0 0 0.81267-0.30402 1.0465 0.38002 0 0-0.26895-2.0638-1.8066-1.637z"/>
   <path d="m131.05 111.86c0 0.0248-1.7281-1.4304-2.0423-2.3151 0 0-1.4717-0.33073-1.9844-1.0335 0 0-0.90124 1.0914-1.2981 0.37207 0 0-4.1176-8.3096-7.3422-4.4648 0 0-0.54571 0.47955-1.3477-0.81856 0 0-2.4391-2.8939-1.571-3.3073 0 0 3.1915-1.571 2.9187-2.0257 0 0-0.60358-0.96738-1.9265-0.9095l-4.4648 0.09922-4.1341-2.2903s-2.7285 0.38861-2.6045 0.08268c0 0 0.99219-1.1493 0.62012-1.2154 0 0-5.2007 0.89297-4.2912-4.2747 0 0-0.37208-0.51263-1.9844-0.22324 0 0-6.4906 1.5792-7.6895 0.81856 0 0-2.1993-0.43822-3.5471-0.10749 0 0-0.51263 0.74414-0.82682 0.7028 0 0-0.76894 0.23151-1.141-0.7028l-2.1249-0.19017-18.81-6.9949s-3.3486-0.46716-5.5687 0.49609l-0.03721 5.7133s0.57051-0.49609 1.0253 0.12402c0 0 0.80202 1.9596 2.9766 1.4469l24.689 17.537s4.6408 0.24621 13.79 3.723z"/>
  </g>
  <path d="m118.51 105.52s-1.678-0.11108-1.5201 0.28063c0 0 0.4268 0.54958 0.28648 0.68405 0 0-1.561-0.56127-1.8533-0.34494 0 0-0.8536 0.6665-2.2041 0.9179 0-0.0292 0.28063-0.97637-0.1754-0.81851 0 0-1.2102 0.33325-4.151-0.4268 0 0-0.14616-0.36248-1.0699-0.36248 0 0 0.0585-0.82436 0.71327-0.39172 0 0 1.9586 0.68989 3.4787 0.19878 0 0 1.754-1.409 2.134-1.0173 0 0 0.59635-0.0526 0.87698 1.1342z" fill="#687d53"/>
  <path d="m106.83 99.841c0.24263 0.4648 0.57004 0.48234 0.57004 0.48234 0.55542 6e-3 0.53495-0.45019 0.53495-0.45019 0.78344-0.14616 0.99099-0.3888 0.99099-0.3888s-0.64312-0.08185-1.1459-0.038c0 0-0.25724-0.52034-0.84774-0.10232 0 0-1.7364-0.0029-1.7774 0.08477 0 0-0.49695 0.36249 0.42388 0.44434z" fill="#687d53"/>
  <path d="m59.857 89.273-0.02479 9.2687s2.0505-1.4387 2.3978-1.9182c0.34727-0.47956 2.0671-4.8369 1.6288-5.7795 0 0-1.8769 0.61185-2.9766-1.4469 0 0-0.39688-0.62839-1.0253-0.12402z" fill="none"/>
  <path d="m157.79 103.54s-5.3165 0.41342-6.1846 1.7942l-0.1819 1.017-4.6302 2.9104-1.0997 1.2402s-2.1001 1.2154-5.1015 1.695l-0.90951 0.34727 3.6546-0.0165s0.41341 0.0909 0.16536 0.27285c0 0-0.93431 0.24801-1.4469 0.926 0 0-0.28112 0.30593 1.9265 0.16537h6.6725l0.63666-0.89297-0.57051-1.0914 0.0827-1.3891 1.0914-1.8356s-0.0413-0.37207-0.0827-0.37207c-0.0413 0-0.49609-0.0413-0.49609-0.0413l-0.0248-0.63665 0.68626-8e-3 0.0992-0.30593 0.86816-0.0165 0.14883-0.31419 4.8121 0.0248z" fill="#758d60"/>
  <path d="m157.62 103.95s-4.0928 0.5209-5.5811 1.6123c0 0-0.35554 0.48783-0.55397 1.2816l-4.5889 2.7947-1.0583 1.1576s-2.3151 1.0831-2.9352 1.1493c0 0 1.2898 0.12402 1.0914 0.45475 0 0-0.81029 0.94258-0.78548 0.95911l2.7285 0.57051 4.7129-0.0331 0.63666-0.89297-0.57051-1.0914 0.0827-1.3891 1.0914-1.8356-0.0579-0.28939-0.52089-0.12402-0.0248-0.63665 0.68626-8e-3 0.0992-0.30593 0.86816-0.0165 0.14883-0.31419 4.8121 0.0248z" fill="#607349"/>
  <g fill="#425230">
   <path d="m148.71 109.67s-0.85163 0.96739-1.0253 1.7363c0 0-2.249 0.87643-2.1084 1.4718 0 0 1.2154 0.40514 0.8847 0.56224 0 0-0.23977 0.14882-3.2494-0.0827 0 0 1.1671-1.0757 1.4717-1.1823 0 0 2.1663-0.76895 2.373-1.1162z"/>
   <path d="m151.97 106.34 0.10128 0.97768 0.86816-0.0165 0.14883-0.31419 2.2572 0.0414-2.1849-0.92604z"/>
  </g>
 </g>
 <g transform="matrix(12.14 0 0 8.102 -723.09 -458.53)" stroke="#000" stroke-width=".26458px">
  <path d="m86.111 116.41c6.6583 2.2738 6.7445 1.63 6.7445 1.63-5.9449-2.595-4.0573-2.9116-4.0573-2.9116 0.30002-0.62839 4.0278-0.502 4.0278-0.502-1.3442-0.22089-3.359-1.31-3.359-1.31 0.17511-1.812-0.66402-4.8468-0.66402-4.8468-1.1008-5.6335-3.083-6.7688-3.083-6.7688-1.2733-1.6867-0.81029-3.6215-0.81029-3.6215 0.08268-4.4483 1.3725-10.021 1.3725-10.021 1.9513-8.4667 2.3482-7.3753 2.3482-7.3753 1.3891-0.28112 2.5797-2.4805 2.5797-2.4805 0.92604-1.8521 1.7859-7.0445 1.7859-7.0445l3.1419-14.42-25.284 0.19844-0.82682 9.74c-0.79375 6.8792-2.927 9.6242-2.927 9.6242-0.38034-0.03307-3.8696 18.124-3.8696 18.124-0.32156 2.4731-3.2624 3.9172-3.2624 3.9172l-0.01294 7.1228 2.2872-1.5978s2.7906 0.87688 3.3859 0.61229c0.59531-0.26458 2.2159-2.0009 2.6624-1.8686 0 0 0.3185-0.80543 12.52 5.1618 0 0 3.9052 7.9351 5.3001 8.6379" fill="#3f3126"/>
  <path d="m91.323 77.931s2.1281-1.8007 3.4144-1.6019l0.94714 0.02339s0.01169 0.68989 1.333 0.56127c0 0 0.79513 0.36248 1.0875 0.63142 0 0 0.93544-0.10524 1.1108-0.43264l6.782 2.4205s0.8536 0.21048 1.2278 5.7647c0 0 5.3905 0.99391 5.3086 0.64312 0 0 2.1983-1.181 4.0692-0.03508 0 0-0.1637-1.0641-1.485-1.1693 0 0-2.2918 0.37418-2.783 0.47941 0 0-2.7479-0.23386-3.6248-0.81851 0 0-0.81851-1.6955-0.76005-2.2217 0 0 0.18709-1.3213 0.61973-1.2628 0 0 2.2802 1.4499 3.4728 1.485 0 0 2.5725 0.26894 4.6772-0.95883 0 0 2.8882-0.98222 3.1805 0.14032 0 0 2.4088-1.2745 3.8002-1.0758 0 0 2.1164-1.333 1.8007-1.906 0 0-1.0641-1.4616-1.2745-1.5435 0 0 0.73666-0.31571 0.46772-0.72497 0 0-0.72185 0.34749-0.85001 0.63688 0 0-0.14056 0.96325 0.57878 1.6123 0 0 0.25631 0.88883-3.5677 0.82682 0 0-0.31419 0.77308-1.1989 0.48369 0 0-0.45061-0.60358-1.0501-0.48369 0 0-0.78549 0.85576-1.3022 0.5457 0 0-0.64079-2.2283-0.28112-2.3647 0 0 1.9141-0.99219 2.2324-0.79788 0 0 0.87229 0.37207 1.1079 0.14469 0 0 0.48782-0.24805 0.3514-1.0955 0 0-0.56638 0.64079-0.86817 0.53744 0 0-0.77308-0.53744-2.3564 0.12402-0.16536 0-0.23151 0.3638-1.542 0.14469 0 0 0.27285 3.5595-0.69867 3.4768 0 0-4.9361 0.63252-6.7799-2.7905 0 0-5.5769 0.19017-5.7464-2.0464 0 0-0.5209-0.7152 3.5016-1.294 0 0 8.9106-2.7643 12.027 0.43957 0 0 6.3783-9.9356 6.3783-10.713 0 0 0.94258-4.8783-0.56224-6.8957l-4.7129-0.04961s3.2577 6.1681-2.7781 12.783l-8.4336 0.3638-0.33073-0.7276s1.7033-1.2733 0.71107-2.5632c0 0 0.77721-1.4221 2.5135-0.95912 0 0 2.5962-8.4501 2.3482-8.8635 0 0-1.4056-0.13229-1.4056-0.04961v2.8939l-1.0749 1.571 0.13229 1.9017-0.95911 1.604-3.1915 0.1819s-1.0583-1.4552-0.3638-2.1993c0 0 1.9844-5.0932 1.0749-5.7878h-0.82683s-0.11575 3.1915-1.571 6.6146c0 0-0.23151 0.33073 0.29766 1.0749l1.7694 2.927-1.6206 2.4143-6.6146 0.28112s-2.8112 2.8608-6.0689 1.0749z" fill="#3f3126"/>
  <g fill="none">
   <path d="m102.51 73.911s-0.0785 0.64492 0.0661 1.0087"/>
   <path d="m105.49 73.803s3.299-2.1828 6.3004-2.0423c0.0413 0.0248 2.7864 0.04134 5.6307 0.86816 0 0 5.6224-4.3822 5.9862-15.652"/>
   <path d="m121.18 57.035s0.78343 4.7941 0.11693 6.8638c0 0-1.4266 3.2741-2.0697 4.2095"/>
   <path d="m94.702 72.307c0.04677 0.03508 1.3564-0.30402 2.7362-0.11693 0 0 1.6955-1.3096 1.9878-1.1927 0.03508-0.02339 2.2801-0.31571 2.3971-0.23386"/>
   <path d="m96.281 75.534s1.2161 0.90036 1.9177 1.2512c0 0 0.97052-0.47941 1.2044-0.38587l2.2801 1.2395"/>
   <path d="m110.41 80.715s0.16537 1.1741 2.6872 1.4139"/>
   <path d="m107.27 79.996s0.0248 3.299 0.37207 4.6467"/>
   <path d="m106.06 78.919c0 0.05262-0.0585 0.61388-0.0585 0.61388"/>
   <path d="m92.086 76.04s1.9926-0.74414 2.0133-0.74414"/>
  </g>
  <path d="m68.884 72.412-2.0112-0.19878-3.8119-4.8292s-0.63142-0.6665 0.09355-1.2512c0.72497-0.58465 2.9934-2.7362 2.8882-4.0575-0.10524-1.3213-1.3681-0.58465-1.1342-2.9583 0.23386-2.3737 1.0173-2.2217 1.0173-2.2217l-1.1342-0.09354s-1.0056 2.1398-0.49111 2.8063c0 0-0.15786 0.61973 0.46772 1.4792 0 0 0.74251 0.5788 0.59634 1.1635 0 0-0.23971 1.5552-2.6192 3.2331 0 0-0.09939 0.57881-0.68404-0.30986 0 0-0.84775-0.08185-0.84775-0.9296l-0.6665-7.1561-0.65481-0.076s0.74835 8.2144 0.72497 8.2144c-0.02339 0 1.0816 0.04093 1.3739 1.1985 0 0 0.43849 0.66065-0.64312 0.83605-1.0816 0.1754-1.6487 0.01169-1.6487 0.01169l-0.0058 1.8709s2.2626-0.19878 2.7771 0.34494l3.7417 5.4548s-0.11693 0.8419 0 0.9296 0.88788 0.42731 0.88788 0.42731z" fill="#3f3126"/>
  <path d="m89.557 69.009c3.6015-2.5725 2.3971-12.02 2.3971-12.02l1.4266-0.04677-0.72497 6.3026s-0.77174 2.8414-0.73666 4.0107 0.21048 1.2044 0.52619 1.5201c0 0-1.0641-1.6604-1.029-1.0758z" fill="#2e211b"/>
  <path d="m82.225 56.825c0.14032 0 2.514-0.05846 2.514-0.05846s2.3269 4.6188 2.5959 6.0804c0 0 1.0758 3.1805-0.81851 7.4835 0 0-1.5669 1.3564-2.4906 1.6721 0 0-1.3681 5.8582-1.485 6.0687 0 0 1.789 2.8531 0.97052 5.3905 0 0 0.22217-2.4789-1.3915-4.9111 0 0-0.72497-0.35079-2.1632 3.5898 0 0-0.38587-0.92375 0.14032-1.7189 0 0 2.2568-3.3676 2.2801-3.7769 0 0 1.1576-2.362 0.60804-5.5776 0 0 3.5547-0.3391 3.3559-3.3442 0 0 0.72497-1.0641-0.23386-2.97 0 0-3.7301-7.9045-3.8119-7.963" fill="#2e211b"/>
  <g fill="none">
   <path d="m89.92 76.904c0.1571-0.01654 1.7115-0.76068 1.7115-0.76068"/>
   <path d="m91.152 69.917c0.08268 0.12402 1.1576 1.1493 1.8107 1.3891"/>
   <path d="m88.299 77.218s0.84336 1.5875 2.6954 0.71934"/>
  </g>
  <path d="m81.941 80.55s-0.8847 0.7276-1.0914 1.4469c0 0-0.15296 1.6371 0.7028 3.1461 0 0 0.26872 0.23151 0.47542-0.09095 0 0 0.59945-3.7951-0.08682-4.5021z" fill="#2e211b"/>
  <g fill="none">
   <path d="m81.015 85.734s0.45475 1.4056 0.45475 1.9596l0.63665-1.5462"/>
   <path d="m79.171 84.899s1.0418 1.1079 0.99219 3.5884c0 0-0.52917 2.2324-1.8521 4.3822 0 0-3.0096 2.1993-4.1341 5.7878 0 0-0.99219 3.7207-0.04961 5.209 0 0 0.49609 1.8355 1.571-0.1323 0 0 6.813-10.749 8.3013-18.637"/>
   <path d="m79.174 104.26c-0.25725-0.58465 0.95883-4.268 0.95883-4.3264 0 0-0.6782 1.6838 0.59634 3.8938"/>
   <path d="m78.028 104.09c0 0.29232-0.47942 1.1693-0.52619 1.637"/>
   <path d="m85.663 106.33s2.8063 3.0402 2.8297 8.15"/>
   <path d="m82.809 94.391c-0.8599 1.9348-1.1576 6.4988-1.1576 6.4988-0.08268 1.0749 2.2324 8.1029 2.2324 8.1029 0.11576 2.4309-0.19844 3.8861-0.19844 3.8861l0.48072 1.0315s0.64312-0.80682 0.60804-2.5608c0 0-0.40926-3.543-1.1693-5.5308 0 0-1.4967-3.2507-1.2862-5.6477 0 0 0.06865-4.1348 0.49035-5.7799z"/>
   <path d="m66.033 104.15s0.19017-2.249 1.2402-3.2411"/>
  </g>
  <path d="m74.13 56.911c-0.30651-0.04843-1.639 19.191-1.639 19.191-1.0749 0.57878-1.8025 1.819-1.8025 1.819l-3.2895 19.245c-2.9233 1.2979-4.6772 6.8638-4.6772 6.8638l1.1342 0.32741s2.0697-5.6127 4.9345-6.4312l2.5594-19.426s0.84336-1.8355 1.7859-2.1001c0 0 1.2911-19.137 1.4895-19.467-0.25467 0.0054-0.31419-0.03307-0.31419-0.03307z" fill="#2e211b"/>
  <path d="m67.232 88.273s0.64492-10.633 2.0174-11.377c0 0 2.6293-0.57878 2.5962-5.0436 0 0-0.47956-9.0785 1.1741-15.081" fill="none"/>
 </g>
 <g transform="matrix(12.14 0 0 8.102 -723.09 -458.53)" stroke="#000" stroke-width=".26458px">
  <path d="m59.955 105.46s1.8429-1.6797 2.2872-1.5978c0.05847 0 2.4789 0.77174 3.4494 0.57296 0.97052-0.19878 1.8124-2.1398 3.3091-1.8124s8.3956 3.2974 11.81 5.1449c0 0 3.872 8.3651 6.8061 10.356 0 0-3.7819 2.9096-10.761 2.4037 0 0-12.794 0.45718-16.861-0.0945z" fill="#7f7e7c"/>
  <g fill="#595957">
   <path d="m60.149 106.47s1.2629-2.0814 2.3386-1.9878c1.0758 0.0935 3.0636 1.5084 4.9345 0.0351 0 0 1.3213 1.2512 0.44434 2.0112 0 0-4.0575 1.1576-4.0926 1.7773 0 0-0.53788 0.63143 3.122 0.42095 0 0 3.3793 9.1206 4.0458 8.8282 0 0 0.63142 0.35079 0.37418-1.1108 0 0 3.0168 3.0519 3.2156 4.1393l-7.3082-0.17539s-2.8882-1.602-4.4667-2.7128c0 0-0.21048-1.4032-0.38587-1.4616l-2.3386-2.3971z"/>
   <path d="m75.426 119.78s-2.6789-4.2747-2.7451-5.5397c0 0 1.0666 1.6454 1.2981 1.2981 0-0.0579-1.4056-4.2168-1.4056-4.2168l5.2751 8.6651z"/>
   <path d="m78.758 117.86s1.8686 0.47129 3.0592 0.0992c0 0 1.1658-0.76893 1.9844-4.0514 0 0 0.07441 1.3394 3.051 4.2168 0 0-2.9104 1.3395-6.259 1.8604 0 0-2.0836-1.695-1.8355-2.1249z"/>
   <path d="m80.569 108.5s-2.7864 1.7363-6.4658 0.76068c0 0 0.63666 1.7694 2.9766 1.0914 0 0 2.1084-0.678 2.9766-0.30593 0 0 1.1906-0.38033 0.51263-1.5462z"/>
  </g>
  <path d="m60.047 114.01 2.3238 2.2257 0.38587 1.4616 4.4667 2.7128-7.2177-0.36429z" fill="#3f3f3d"/>
 </g>
 <g stroke="#000">
  <g transform="matrix(12.14 0 0 8.102 -723.09 -458.53)">
   <g stroke-width=".26458px">
    <g fill="#b2ced1">
     <path d="m62.827 141.51 5.0514 2.6894 5.1216-2.6543z"/>
     <path d="m70.065 139.44 2.2568 1.2745 2.4789-1.3096z"/>
     <path d="m77.466 140.69 1.0874 0.99391 1.3447-1.029z"/>
    </g>
    <g fill="none">
     <path d="m123.28 139.12-1.8124 1.2512-2.4555-1.1342z"/>
     <path d="m144.02 141.17 6.63-0.0351-3.2974 1.8358z"/>
     <path d="m150.34 143.38 3.5664 0.0351-1.754 1.1693z"/>
     <path d="m150.26 131.36 1.3447 0.81851 1.2512-0.9939z"/>
     <path d="m125.54 112s-0.68505 0.15507-0.13547 0.24867c0.54957 0.0935 1.4733 0.30402 1.1342 0.38587-0.3391 0.0819-1.9294 0.0585-1.1342 0.11693 0.79512 0.0585 2.7128-0.12862 1.7773 0.0819-0.93544 0.21048-5.4723 0.3508-4.724 0.44434 0.74835 0.0935 2.935 0.23386 4.0224 0.29232 1.0874 0.0585-5.7647 0.23387-4.7357 0.46773s5.8933 0.67819 4.0926 0.81851-9.7169 0.0117-8.3488 0.3274c1.3681 0.31572 6.1622 0.5145 5.2268 1.2161-0.93545 0.70158-5.4373-0.5028-4.9696 0.29233 0 0 4.0274 0.2659 4.2095 0.29223 0.22699 0.0328-1.2512 0.53788-6.4546 0.15201l5.5726 1.9803 3.7752 0.0543 12.177 2.5892 5.6962-2.5892 1.754-0.11693 2.8885-2.0671s-3.1439 0.57024-4.7129 0.2067c0 0 0.52917-0.49609 4.1672-0.57877 0 0-5.6321-0.23666-5.3744-0.33073 0 0 4.5641-0.75241 5.3744-1.0087 0 0-8.7395 0.12403-8.7395-0.37207 0 0 5.7464-0.26458 4.6302-0.49609 0 0-5.5149-0.43822-4.9196-0.76895 0 0 2.6293-0.091 1.819-0.19016 0 0-3.0262-0.17364-2.7451-0.37208 0 0 2.3151-0.38033 1.8356-0.65319l-1.5296-0.52089-10.521 0.0455z"/>
    </g>
    <path d="m60.143 136.93s37.089 0.23623 40.16-0.47248c3.071-0.7087 44.223-2.4568 46.775-2.8348 0 0-0.1027-1.6719 1.3172-2.6741 0 0-1.6412-1.3844-8.657-2.3365 0 0-1.2048 0.21297 17.988 0.63058l0.0668 16.07-97.72 0.0167z" fill-opacity="0"/>
    <path d="m141.76 111.84s-0.86863 0.0668-2.1716 0.73499l3.6248 0.13364s-1.5201 0.81851-1.0691 1.0357l8.4691 0.18375s-0.21715 0.41761-0.25056 0.70158l-5.8799 4.4266s-1.5034-0.0167-1.754 0.11693l-5.6962 2.5892-12.177-2.5892-3.7752-0.0543s-13.737-3.9301-17.868-7.0077z" fill="none"/>
   </g>
   <g stroke-width=".033073">
    <path d="m115.36 117.2c-0.57903-0.18608-2.4828-0.84471-3.3849-1.171-3.7429-1.3539-6.6042-2.6252-8.1693-3.6298-0.1338-0.0859-0.2361-0.1633-0.22735-0.17206 0.0159-0.0159 17.868-0.14356 20.24-0.14476 1.2113-5.3e-4 1.2485 1e-3 1.2485 0.0632 0 0.14196 0.085 0.17852 0.71106 0.30606 0.42653 0.0869 0.38396 0.11564-0.1819 0.12284-0.37294 5e-3 -0.39842 0.012-0.46113 0.13098-0.0484 0.0918-0.0257 0.12045 0.1304 0.16451 0.10314 0.0291 0.10624 0.033 0.0285 0.0357-0.2305 8e-3 -2.1757 0.13937-2.5255 0.17073-0.42905 0.0384-0.53161 0.0822-0.49246 0.20988 0.0116 0.0379 0.0247 0.0731 0.0292 0.0783 0.0233 0.0272 0.49042 0.0783 1.2717 0.13915 0.79393 0.0618 1.0922 0.0993 0.79291 0.0996-0.17847 1.9e-4 -1.595 0.0949-2.0147 0.13464-0.43987 0.0417-0.66938 0.081-0.76157 0.13031-0.0756 0.0404-0.0867 0.17206-0.0193 0.228 0.0684 0.0568 0.40556 0.11911 1.3431 0.24835 0.46385 0.064 1.2378 0.17047 1.7198 0.23672 0.48203 0.0662 0.89749 0.13196 0.92324 0.14604 0.0623 0.0341-1.0852 0.061-4.2967 0.10072-2.679 0.0332-3.6775 0.0694-3.8986 0.14161-0.15684 0.0512-0.18462 0.18782-0.0554 0.27249 0.1101 0.0721 0.772 0.18136 1.8869 0.31134 2.2874 0.26667 3.2261 0.43647 3.46 0.62583l0.0765 0.062-0.11461 0.0703c-0.37005 0.22688-1.01 0.24683-2.777 0.0866-1.2042-0.10923-1.5444-0.12839-1.7975-0.10128-0.24743 0.0265-0.42874 0.12645-0.44589 0.24581-0.0113 0.0782 0.052 0.2684 0.0894 0.26878 0.15387 2e-3 3.3576 0.23324 3.3679 0.24358 0.0769 0.0769-3.4585 0.0983-4.5543 0.0276-0.35471-0.0229-0.7201-0.05-0.81199-0.0603l-0.16707-0.0186-0.0314 0.11412c-0.0299 0.10872-0.0361 0.11262-0.13059 0.0822z" fill="#748e91"/>
    <path d="m143.21 117.15c-0.0507-0.0199-0.0122-0.0382 0.16537-0.0784 0.66687-0.15084 1.4334-0.2369 2.621-0.29429l0.83509-0.0403v-0.25084l-0.19016-5.3e-4c-0.20841-5.3e-4 -2.3867-0.10561-3.5121-0.16932-0.40714-0.023-0.68179-0.051-0.64492-0.0656 0.0353-0.014 0.4214-0.0861 0.85796-0.16021 1.4602-0.24789 3.4044-0.62676 3.491-0.68031 0.0101-6e-3 0.0125-0.0625 5e-3 -0.12492l-0.0132-0.11352-3.0148-0.0195c-2.7369-0.0177-3.2986-0.0312-4.47-0.10777-0.49836-0.0326-0.35561-0.0644 0.49609-0.11081 1.5265-0.0831 2.8437-0.22176 3.0322-0.3192 0.12946-0.067 0.1307-0.21713 2e-3 -0.2761-0.05-0.023-0.48535-0.0778-0.96738-0.12172-1.563-0.14258-3.0233-0.31931-3.4537-0.41796l-0.16778-0.0385 0.3638-0.0255c0.63391-0.0445 1.0904-0.0881 1.1462-0.10955 0.0297-0.0114 0.0609-0.0566 0.0693-0.10037 0.0298-0.15579-0.0453-0.17822-0.77248-0.23089-0.73063-0.0529-1.6571-0.14396-1.6781-0.1649-7e-3 -7e-3 0.0222-0.0209 0.0653-0.0305 0.9754-0.21777 1.3625-0.36535 1.4053-0.53573 0.0403-0.16052-0.0522-0.22656-0.55669-0.39766l-0.47261-0.16028 0.68626-9e-3c0.37745-5e-3 0.99324-5e-3 1.3684 0l0.68215 9e-3 -0.35969 0.14519c-0.41556 0.16774-1.0854 0.49607-1.0613 0.52019 9e-3 9e-3 0.79566 0.0453 1.7481 0.0807 0.95242 0.0353 1.754 0.0684 1.7813 0.0734 0.0281 5e-3 -0.0434 0.0725-0.16498 0.15542-0.53402 0.36406-0.71049 0.64213-0.52067 0.82046 0.0747 0.0701 0.0951 0.0709 4.2251 0.1592 2.2825 0.0488 4.1532 0.091 4.1569 0.0938 0.0253 0.0185-0.15792 0.49811-0.20862 0.54625-0.0608 0.0578-2.9708 2.2512-3.0413 2.2924-0.0599 0.035-1.1934 0.18481-1.8006 0.23797-0.60108 0.0526-2.0169 0.0661-2.1332 0.0204z" fill="#748e91"/>
    <path d="m145.94 142.06-1.3854-0.75097 1.3193-0.0244c0.72561-0.0134 1.9813-0.0208 2.7904-0.0165l1.4711 8e-3 -1.3807 0.76894c-0.75939 0.42292-1.3916 0.7683-1.4049 0.7675-0.0133-7.9e-4 -0.64769-0.33937-1.4097-0.7524z" fill="#87a5a8" opacity=".518"/>
   </g>
   <g fill="#b2ced1" stroke-width=".033073">
    <path d="m145.91 142.06-1.3783-0.74878 0.35305-0.0206c0.19418-0.0113 1.4544-0.022 2.8004-0.0238 2.0607-3e-3 2.4381 4e-3 2.3886 0.0415-0.13083 0.0993-2.6946 1.5074-2.7383 1.5041-0.0259-2e-3 -0.66737-0.34058-1.4254-0.75241z"/>
    <path d="m151.46 143.97-0.69051-0.46024 1.0749 3e-3c0.59118 2e-3 1.1962 0.0129 1.3445 0.0248l0.26959 0.0215-0.65395 0.43547-0.65394 0.43546z"/>
    <path d="m151.11 131.73-0.44638-0.27345 0.81028-0.0578c0.44566-0.0318 0.84441-0.0542 0.88611-0.0499 0.0611 6e-3 -2e-3 0.0691-0.3243 0.32215-0.22006 0.1728-0.41794 0.3183-0.43972 0.32331-0.0218 5e-3 -0.24048-0.11393-0.48599-0.26433z"/>
    <path d="m120.52 139.79c-0.86348-0.3992-0.93016-0.43585-0.80877-0.44453 0.20362-0.0146 3.1074-0.0957 3.1194-0.0872 6e-3 4e-3 -0.20999 0.16016-0.47956 0.34669-0.26956 0.18654-0.58009 0.40237-0.69006 0.47963l-0.19995 0.14047z"/>
    <path d="m131.68 120.49c-2.8922-0.61624-5.6094-1.1949-6.0383-1.286l-0.77967-0.16555-1.8331-0.021c-1.0179-0.0117-1.8919-0.0356-1.9654-0.0538-0.21304-0.0527-4.5277-1.5868-4.5641-1.6228-0.0219-0.0216 6e-3 -0.026 0.0827-0.0129 0.31474 0.0539 2.5 0.0912 3.3262 0.0568 1.6495-0.0687 2.3115-0.20567 2.1526-0.44546-0.0377-0.0569-0.0939-0.074-0.3068-0.0931-0.24578-0.0221-3.5743-0.2538-3.7504-0.26106-0.0672-3e-3 -0.0611-9e-3 0.0336-0.0337 0.1447-0.0379 0.52695-0.0169 1.7032 0.0937 1.1738 0.11039 2.2945 0.12453 2.6271 0.0332 0.52196-0.1434 0.73253-0.42462 0.48962-0.65392-0.26324-0.24849-1.0455-0.40869-3.2986-0.67554-0.70032-0.0829-1.3254-0.16259-1.3891-0.17699-0.20523-0.0464 0.6142-0.0701 3.638-0.10495 3.0264-0.0349 4.1786-0.0719 4.389-0.14083 0.11346-0.0372 0.12545-0.0522 0.12545-0.15671 0-0.11055-8e-3 -0.11821-0.17901-0.17497-0.25404-0.0842-0.7299-0.16081-2.307-0.37121-0.76092-0.10152-1.4207-0.19623-1.4662-0.21049-0.0608-0.0191-8e-3 -0.0316 0.19843-0.0474 0.47445-0.0362 1.8166-0.11679 2.8773-0.17272 0.5548-0.0293 1.0631-0.0672 1.1295-0.0843 0.10285-0.0264 0.11813-0.0421 0.10271-0.10507-0.0331-0.13507-0.0693-0.14845-0.4641-0.17127-0.2133-0.0123-0.81941-0.0513-1.3469-0.0865-0.52751-0.0353-0.9802-0.0641-1.006-0.0642-0.0258-4e-5 -0.0397-7e-3 -0.0311-0.0159 9e-3 -9e-3 0.35719-0.0387 0.77445-0.0667 1.6157-0.10839 2.1378-0.15709 2.5585-0.23864 0.32737-0.0634 0.41909-0.12886 0.36063-0.25717-0.0372-0.0817-0.0444-0.0832-0.41292-0.0832-0.29211 0-0.37504-0.01-0.37504-0.0445 0-0.12114-0.25787-0.22993-0.84663-0.35716l-0.36053-0.0779 0.21498-0.0232c0.11823-0.0127 2.7298-0.0396 5.8034-0.0596l5.5884-0.0365 0.70372 0.24059c0.38704 0.13232 0.70372 0.25152 0.70372 0.26489 0 0.0549-1.0288 0.32058-1.5763 0.40713-0.25719 0.0407-0.317 0.24049-0.099 0.33072 0.12672 0.0525 0.63656 0.13911 0.99727 0.16951 0.37635 0.0317 0.45419 0.0743 0.14056 0.0768-0.21045 2e-3 -0.26816 0.0139-0.32247 0.0682-0.14024 0.14025-0.0423 0.26333 0.28802 0.36204 0.44533 0.13306 1.7014 0.30739 3.3831 0.46953 0.59627 0.0575 0.74641 0.0807 0.64492 0.0995-0.26203 0.0486-2.1661 0.1838-3.5553 0.25242l-0.47956 0.0237 0.0113 0.0992c6e-3 0.0546 0.033 0.12351 0.0595 0.15319 0.20962 0.235 2.1524 0.3585 5.6492 0.35912 1.0405 1.9e-4 1.8367 0.0128 1.819 0.0289-0.0304 0.0276-1.6606 0.3272-3.3222 0.61051l-0.81028 0.13815-0.0109 0.095c-6e-3 0.0522 2e-3 0.1081 0.0183 0.12414 0.0474 0.0474 0.48623 0.0895 1.6714 0.16049 0.61414 0.0368 1.1648 0.0683 1.2237 0.0701 0.0589 2e-3 -0.0938 0.0377-0.33941 0.0799-0.84036 0.14427-1.2197 0.26636-1.4151 0.45546l-0.10872 0.10521 0.25754 0.0573c0.45978 0.10233 1.219 0.13818 2.0034 0.0946 0.63843-0.0355 1.6785-0.13636 1.9253-0.18674 0.0877-0.0179 0.0935-0.0146 0.0496 0.0285-0.0273 0.0268-0.53608 0.41299-1.1306 0.85813l-1.081 0.80935-0.70491 0.0214c-0.3877 0.0118-0.77507 0.0358-0.86083 0.0535-0.0858 0.0176-1.4342 0.61307-2.9965 1.3232s-2.8614 1.2899-2.8868 1.2884c-0.0254-1e-3 -2.4126-0.50683-5.3048-1.1231z"/>
    <path d="m131.68 120.49c-2.8922-0.61624-5.6094-1.1949-6.0383-1.286l-0.77967-0.16555-1.8331-0.021c-1.0179-0.0117-1.8919-0.0356-1.9654-0.0538-0.21304-0.0527-4.5277-1.5868-4.5641-1.6228-0.0219-0.0216 6e-3 -0.026 0.0827-0.0129 0.31474 0.0539 2.5 0.0912 3.3262 0.0568 1.6495-0.0687 2.3115-0.20567 2.1526-0.44546-0.0377-0.0569-0.0939-0.074-0.3068-0.0931-0.24578-0.0221-3.5743-0.2538-3.7504-0.26106-0.0672-3e-3 -0.0611-9e-3 0.0336-0.0337 0.1447-0.0379 0.52695-0.0169 1.7032 0.0937 1.1738 0.11039 2.2945 0.12453 2.6271 0.0332 0.52196-0.1434 0.73253-0.42462 0.48962-0.65392-0.26324-0.24849-1.0455-0.40869-3.2986-0.67554-0.70032-0.0829-1.3254-0.16259-1.3891-0.17699-0.20523-0.0464 0.6142-0.0701 3.638-0.10495 3.0264-0.0349 4.1786-0.0719 4.389-0.14083 0.11346-0.0372 0.12545-0.0522 0.12545-0.15671 0-0.11055-8e-3 -0.11821-0.17901-0.17497-0.25404-0.0842-0.7299-0.16081-2.307-0.37121-0.76092-0.10152-1.4207-0.19623-1.4662-0.21049-0.0608-0.0191-8e-3 -0.0316 0.19843-0.0474 0.47445-0.0362 1.8166-0.11679 2.8773-0.17272 0.5548-0.0293 1.0631-0.0672 1.1295-0.0843 0.10285-0.0264 0.11813-0.0421 0.10271-0.10507-0.0331-0.13507-0.0693-0.14845-0.4641-0.17127-0.2133-0.0123-0.81941-0.0513-1.3469-0.0865-0.52751-0.0353-0.9802-0.0641-1.006-0.0642-0.0258-4e-5 -0.0397-7e-3 -0.0311-0.0159 9e-3 -9e-3 0.35719-0.0387 0.77445-0.0667 1.6157-0.10839 2.1378-0.15709 2.5585-0.23864 0.32737-0.0634 0.41909-0.12886 0.36063-0.25717-0.0372-0.0817-0.0444-0.0832-0.41292-0.0832-0.29211 0-0.37504-0.01-0.37504-0.0445 0-0.12114-0.25787-0.22993-0.84663-0.35716l-0.36053-0.0779 0.21498-0.0232c0.11823-0.0127 2.7298-0.0396 5.8034-0.0596l5.5884-0.0365 0.70372 0.24059c0.38704 0.13232 0.70372 0.25152 0.70372 0.26489 0 0.0549-1.0288 0.32058-1.5763 0.40713-0.25719 0.0407-0.317 0.24049-0.099 0.33072 0.12672 0.0525 0.63656 0.13911 0.99727 0.16951 0.37635 0.0317 0.45419 0.0743 0.14056 0.0768-0.21045 2e-3 -0.26816 0.0139-0.32247 0.0682-0.14024 0.14025-0.0423 0.26333 0.28802 0.36204 0.44533 0.13306 1.7014 0.30739 3.3831 0.46953 0.59627 0.0575 0.74641 0.0807 0.64492 0.0995-0.26203 0.0486-2.1661 0.1838-3.5553 0.25242l-0.47956 0.0237 0.0113 0.0992c6e-3 0.0546 0.033 0.12351 0.0595 0.15319 0.20962 0.235 2.1524 0.3585 5.6492 0.35912 1.0405 1.9e-4 1.8367 0.0128 1.819 0.0289-0.0304 0.0276-1.6606 0.3272-3.3222 0.61051l-0.81028 0.13815-0.0109 0.095c-6e-3 0.0522 2e-3 0.1081 0.0183 0.12414 0.0474 0.0474 0.48623 0.0895 1.6714 0.16049 0.61414 0.0368 1.1648 0.0683 1.2237 0.0701 0.0589 2e-3 -0.0938 0.0377-0.33941 0.0799-0.84036 0.14427-1.2197 0.26636-1.4151 0.45546l-0.10872 0.10521 0.25754 0.0573c0.45978 0.10233 1.219 0.13818 2.0034 0.0946 0.63843-0.0355 1.6785-0.13636 1.9253-0.18674 0.0877-0.0179 0.0935-0.0146 0.0496 0.0285-0.0273 0.0268-0.53608 0.41299-1.1306 0.85813l-1.081 0.80935-0.70491 0.0214c-0.3877 0.0118-0.77507 0.0358-0.86083 0.0535-0.0858 0.0176-1.4342 0.61307-2.9965 1.3232s-2.8614 1.2899-2.8868 1.2884c-0.0254-1e-3 -2.4126-0.50683-5.3048-1.1231z"/>
   </g>
   <path d="m60.211 143.88c0.0057-0.72887 0.0204-2.5545 0.03252-4.0569l0.02207-2.7317 10.91-2e-3c10.482-2e-3 12.578-0.0113 18.146-0.0807 5.3176-0.0663 8.7349-0.17456 10.276-0.32562 0.1878-0.0184 0.54634-0.0691 0.79674-0.11268 1.0374-0.18052 3.7261-0.40028 8.3414-0.68178 0.74227-0.0453 1.7008-0.10403 2.1301-0.13057 2.4108-0.14904 9.7858-0.54728 16.845-0.90963 1.574-0.0808 3.2788-0.16911 3.7886-0.19627 0.50975-0.0271 2.4707-0.12958 4.3577-0.22762 6.4229-0.3337 9.3293-0.50233 10.667-0.61887 0.29512-0.0257 0.5674-0.0469 0.60508-0.0472 0.0607-2.7e-4 0.0709-0.0253 0.0897-0.21991 0.0511-0.53029 0.25953-1.2598 0.4668-1.6341 0.11114-0.20073 0.56885-0.69546 0.8059-0.87109l0.0976-0.0723-0.0976-0.0828c-0.64099-0.5441-2.6063-1.2277-5.0461-1.7551-0.36943-0.0799-0.68-0.15351-0.69016-0.16366-0.0102-0.0102 0.091-0.01 0.22477 2.6e-4 0.61289 0.0475 6.4436 0.21859 11.089 0.32536 1.1536 0.0265 2.4214 0.0575 2.8171 0.0689l0.71956 0.0207 0.021 6.72c0.0115 3.696 0.0243 7.2542 0.0284 7.907l7e-3 1.187-97.462 0.016zm93.028 0.13208c0.58103-0.38792 1.0531-0.70803 1.049-0.71138-4e-3 -3e-3 -0.98792-0.0159-2.1863-0.0279l-2.1788-0.0219 1.1 0.73323c0.60502 0.40328 1.1135 0.73323 1.1299 0.73323s0.5052-0.31738 1.0862-0.70529zm-82.761-1.0206 2.578-1.3357-0.02857-0.0996c-0.01572-0.0548-0.03755-0.10859-0.04853-0.11958-0.01098-0.011-2.3003-0.0246-5.0873-0.0302l-5.0674-0.0102-0.02241 0.10198c-0.0123 0.0561-0.01267 0.1119-7.94e-4 0.12404 0.03265 0.0334 5.0371 2.7018 5.0702 2.7035 0.01582 7.9e-4 1.1889-0.59958 2.6068-1.3342zm78.581-0.82648 1.6337-0.91015-0.0179-0.11013c-0.01-0.0606-0.0249-0.11718-0.0336-0.12581-9e-3 -9e-3 -1.5016-5e-3 -3.3178 8e-3l-3.3021 0.0242-0.0208 0.11086c-0.0114 0.061-0.0138 0.11786-5e-3 0.12642 0.0613 0.0613 3.3367 1.802 3.3778 1.7951 0.0287-5e-3 0.78737-0.41835 1.6859-0.91894zm-69.611-1.0075c0.44338-0.33928 0.79381-0.62061 0.77874-0.62517-0.01506-5e-3 -0.71351 2e-3 -1.5521 0.0153l-1.5247 0.0236 0.69544 0.63752c0.57188 0.52426 0.70442 0.63114 0.74596 0.60162 0.02778-0.0197 0.41328-0.3135 0.85666-0.65278zm-5.8646-0.97108c1.1505-0.60844 1.2494-0.66741 1.2416-0.73983-0.01807-0.16691 0.0298-0.15999-1.1071-0.15999-0.58786 0-1.7508 0.01-2.5842 0.0215l-1.5154 0.0215 1.3393 0.75798c0.73663 0.41689 1.3475 0.75842 1.3575 0.75895 0.01 5.2e-4 0.58072-0.29656 1.2683-0.66018zm48.989-0.42239c0.57235-0.39314 1.0553-0.72885 1.0732-0.74602 0.0208-0.02-0.2432-0.0233-0.7317-9e-3 -0.42032 0.012-1.4647 0.0412-2.3209 0.0648-1.6688 0.046-1.6137 0.0387-1.6124 0.21311 5.3e-4 0.0752 0.0941 0.12438 1.2434 0.65413 0.68354 0.31506 1.2574 0.56502 1.2753 0.55546 0.0179-0.01 0.50081-0.33902 1.0732-0.73216zm29.855-8.0846c0.43759-0.34684 0.79181-0.63412 0.78716-0.6384-9e-3 -8e-3 -3.1849 0.20455-3.2876 0.22023-0.0355 5e-3 0.28674 0.22143 0.79674 0.53406 0.47101 0.28871 0.868 0.52264 0.88222 0.51983 0.0142-3e-3 0.38387-0.28888 0.82146-0.63572z" fill-opacity="0" stroke-width=".03252"/>
   <path d="m60.229 142.66c0.0113-1.4026 0.02959-3.2269 0.04068-4.0542l0.02016-1.504 9.4837-5.3e-4c15.498-1e-3 23.798-0.0877 28.036-0.29319 1.2657-0.0614 1.9198-0.11933 2.5691-0.22774 2.0447-0.34139 8.6268-0.75694 27.268-1.7215 10.715-0.55447 13.706-0.71395 16.195-0.86363 1.4274-0.0858 2.9926-0.1977 3.2257-0.23052l0.13629-0.0192 0.0212-0.18359c0.0647-0.55935 0.29557-1.3564 0.48813-1.6849 0.0901-0.15371 0.67442-0.76782 0.82495-0.86697l0.0785-0.0517-0.0785-0.0666c-0.64187-0.54481-2.3513-1.159-4.8101-1.7282l-0.82926-0.19198 0.45527 0.017c2.5098 0.0935 9.359 0.28158 13.159 0.36125l1.0612 0.0223 0.0195 1.6617c0.0107 0.91394 0.0281 4.4678 0.0386 7.8974l0.0192 6.2357h-30.078c-16.543 0-38.467 0.01-48.721 0.0217l-18.644 0.0217zm93.045 1.3337 1.0389-0.69681-0.84536-0.0241c-0.46494-0.0133-1.4516-0.0206-2.1925-0.0162l-1.3471 8e-3 1.087 0.72406c0.71822 0.47843 1.1096 0.72034 1.1536 0.71308 0.0366-6e-3 0.53411-0.32456 1.1055-0.70781zm-84.224-0.25677c3.9374-2.0284 3.9967-2.0605 3.9891-2.1625-0.0038-0.0516-0.02574-0.11153-0.04878-0.13312-0.03218-0.0302-1.2138-0.0432-5.1046-0.0561-4.4576-0.0148-5.0649-0.0111-5.0812 0.0314-0.03923 0.10221-0.01672 0.20519 0.05464 0.25013 0.08078 0.0509 4.3926 2.349 4.756 2.535 0.1252 0.064 0.24403 0.11716 0.26406 0.11804 0.02003 7.9e-4 0.54686-0.26135 1.1707-0.58274zm80.255-1.7014c0.7691-0.4276 1.4016-0.78053 1.4056-0.78428 4e-3 -4e-3 -8e-3 -0.0609-0.0259-0.12694l-0.0332-0.12012-2.4619 4e-3c-1.354 2e-3 -2.8491 0.0133-3.3224 0.0244l-0.8605 0.0202-0.0217 0.10631c-0.0185 0.0907-9e-3 0.11509 0.0638 0.16613 0.047 0.0329 0.65617 0.3648 1.3537 0.73756 0.69755 0.37276 1.4219 0.76074 1.6097 0.86218l0.34146 0.18444 0.27642-0.14831c0.15203-0.0816 0.90569-0.49816 1.6748-0.92576zm-70.438-0.42581c0.14309-0.10761 0.51626-0.39397 0.82926-0.63636l0.5691-0.44071-0.61788-8e-3c-0.33983-4e-3 -1.0457 3e-3 -1.5687 0.0163l-0.9508 0.0243 0.70591 0.63978c0.38825 0.35187 0.72099 0.63092 0.73942 0.6201 0.01844-0.0108 0.15059-0.10773 0.29368-0.21534zm-5.7915-1.1458c1.2299-0.64671 1.7493-0.93503 1.7669-0.98074 0.0093-0.0242 5.29e-4 -0.0797-0.01921-0.12327l-0.0361-0.0792-2.1389 4e-3c-1.1764 2e-3 -2.343 0.0131-2.5926 0.0244l-0.4537 0.0204 1.2667 0.71161c0.69668 0.39139 1.296 0.73086 1.3317 0.75439 0.03577 0.0235 0.08569 0.0435 0.11092 0.0445 0.02524 1e-3 0.36913-0.16826 0.76422-0.37601zm49.087-0.4083c0.36957-0.25345 0.86219-0.59369 1.0947-0.75609l0.42276-0.29527-0.22764-0.0107c-0.31721-0.015-4.202 0.0931-4.3414 0.12078-0.10179 0.0202-0.11486 0.0348-0.1236 0.13807l-0.01 0.11547 1.0992 0.50736c1.0352 0.47784 1.3772 0.63358 1.4028 0.63896 6e-3 1e-3 0.31335-0.20508 0.68292-0.45853zm29.782-7.9838c0.60454-0.47121 1.2825-1.0266 1.2693-1.0398-0.0211-0.0211-3.3009 0.19944-3.3251 0.22363-0.0199 0.0199 1.6601 1.0636 1.7143 1.0651 0.0117 2.6e-4 0.16536-0.11173 0.34146-0.249z" fill="#748e91" stroke-width=".03252"/>
  </g>
  <g stroke-width=".26458px">
   <g transform="matrix(12.14 0 0 8.102 -723.09 -458.53)">
    <path d="m60.143 136.93-0.12056-2.2544s18.223 0.88896 19.827 0.55823c0 0 63.353-2.9887 68.428-4.1274 0 0-0.9234 0.24218-1.2002 2.5163 0 0-42.084 2.1176-45.028 2.531-0.46985 0.0535-4.8188 0.78694-10.344 0.56844z" fill="#866f50"/>
    <path d="m137.03 121.76 5.6962-2.5892 1.754-0.11693 8.9393-6.3026 1.5084 2.2217s2.3094 0.31571 2.9759-0.46772l-0.1479 8.2042s-3.1285 0.32415-6.3429-0.53153c0 0-5.5453-0.41025-9.3903-0.15355 0 0-1e-3 1.0969-4.9926-0.26447z" fill="#866f50"/>
    <g fill="none">
     <path d="m153.78 113.37-4.5018 4.3849-2.9817 0.87698-0.0234 0.79513-7.3432 2.8531"/>
     <path d="m154.63 114.69s-3.8353 3.5079-5.8231 4.3498c0 0-0.42095 0.0351-0.3274 0.0351 0.0935 0 0.15201 0.80682 0.15201 0.80682l-2.1632 1.941"/>
     <path d="m151.71 120.07-1.2628 2.0112"/>
     <path d="m156.01 120.76-0.40926 1.8358"/>
     <path d="m155.89 115.35s-0.0585 0.57296-1.1693 1.4382"/>
    </g>
    <path d="m157.73 129.24-0.0181-2.1873-24.485-0.21608s-0.53711 0.16264-0.0361 0.40507c0 0 4.3872 1.3002 7.3996 1.4497z" fill="#866f50"/>
   </g>
   <g transform="matrix(12.14 0 0 8.102 -723.09 -458.53)">
    <path d="m140.57 122.44-3.5398-0.67788" fill="none"/>
    <path d="m140.57 122.44-15.717-3.2671-3.7752-0.0543s-10.592-3.0082-18.106-6.702c-4e-3 -2e-3 -7e-3 -4e-3 -0.0109-5e-3 0 0-9.8804-3.9651-14.156-3.9415 0 0 0.71274 1.9895 0.66402 4.8468 0 0 1.6285 1.0442 3.359 1.31 0 0-3.4786-0.17717-4.0278 0.502 0 0-0.64965 0.4961-0.02953 0.83864 0 0 3.7148 1.884 4.0869 2.073 0 0-1.4588 0.25396-6.7445-1.63 0 0-0.05906 0.42522 1.506 1.7186 0 0-1.7009 1.4233-5.9531 2.2442 0 0-3.5081 0.47247-4.8074 0.15946 0 0-9.4199 0.61421-16.861-0.0945l0.02709 14.241s19.745 0.9648 28.498 0.2298c8.7531-0.73499 59.466-3.5885 59.466-3.5885s0.35025-0.36228 0.0716-0.54039c-0.35695-0.22815-5.1495-1.6417-6.4727-1.9907 0 0-4.6775-0.3012-8.3982-1.5414 0 0-0.58825-0.34242 0.0361-0.40507l24.485 0.21608s0.0427-3.2499 0.0472-4.3467c0 0-2.7758 0.25986-6.3429-0.53153 0 0-2.9293-0.4016-9.3903-0.15355 0 0-0.12992 0.67327-1.4528 0.41341" fill="#fff"/>
    <g fill="none">
     <path d="m150.6 114.52 0.66146-1.5627s-0.65319-0.37207-0.63665-1.7777c0 0 0.35553-1.5627 1.1989-2.6128 0 0 0.43375-0.16086 0.0946-0.24125 0 0-0.5963 0.18562-0.64161-0.0585 0 0-0.58027-0.73081 7e-3 -0.7162 6e-3 0 0.58642 0.21486 1.1389-0.20463 0 0 0.76121-0.56126 5.3832-0.26773l0.0965 7.4239s0.64896 0.55542-2.9759 0.46772c0 0-0.66065-0.78928-1.5084-2.2217 0 0-1.0289 0.54369-2.818 1.7715z"/>
     <path d="m150.6 114.52 0.66146-1.5627s-0.65319-0.37207-0.63665-1.7777c0 0 0.35553-1.5627 1.1989-2.6128 0 0 0.43375-0.16086 0.0946-0.24125 0 0-0.5963 0.18562-0.64161-0.0585 0 0-0.58027-0.73081 7e-3 -0.7162 6e-3 0 0.58642 0.21486 1.1389-0.20463 0 0 0.76121-0.56126 5.3832-0.26773l0.0965 7.4239s0.64896 0.55542-2.9759 0.46772c0 0-0.66065-0.78928-1.5084-2.2217 0 0-1.0289 0.54369-2.818 1.7715z"/>
     <path d="m150.6 114.52 0.66146-1.5627s-0.65319-0.37207-0.63665-1.7777c0 0 0.35553-1.5627 1.1989-2.6128 0 0 0.43375-0.16086 0.0946-0.24125 0 0-0.5963 0.18562-0.64161-0.0585 0 0-0.58027-0.73081 7e-3 -0.7162 6e-3 0 0.58642 0.21486 1.1389-0.20463 0 0 0.76121-0.56126 5.3832-0.26773l0.0965 7.4239s0.64896 0.55542-2.9759 0.46772c0 0-0.66065-0.78928-1.5084-2.2217 0 0-1.0289 0.54369-2.818 1.7715z"/>
     <path d="m150.6 114.52 0.66146-1.5627s-0.65319-0.37207-0.63665-1.7777c0 0 0.35553-1.5627 1.1989-2.6128 0 0 0.43375-0.16086 0.0946-0.24125 0 0-0.5963 0.18562-0.64161-0.0585 0 0-0.58027-0.73081 7e-3 -0.7162 6e-3 0 0.58642 0.21486 1.1389-0.20463 0 0 0.76121-0.56126 5.3832-0.26773l0.0965 7.4239s0.64896 0.55542-2.9759 0.46772c0 0-0.66065-0.78928-1.5084-2.2217 0 0-1.0289 0.54369-2.818 1.7715z"/>
    </g>
    <path d="m150.6 114.52 0.66146-1.5627s-0.65319-0.37207-0.63665-1.7777c0 0 0.35553-1.5627 1.1989-2.6128 0 0 0.43375-0.16086 0.0946-0.24125 0 0-0.5963 0.18562-0.64161-0.0585 0 0-0.58027-0.73081 7e-3 -0.7162 6e-3 0 0.58642 0.21486 1.1389-0.20463 0 0 0.76121-0.56126 5.3832-0.26773l0.0965 7.4239s0.64896 0.55542-2.9759 0.46772c0 0-0.66065-0.78928-1.5084-2.2217 0 0-1.0289 0.54369-2.818 1.7715z" fill="#fff"/>
    <path d="m102.78 112.24c0.0102 4e-3 0.71912 0.12716 1.1211 0.47503" fill="none"/>
   </g>
   <g transform="matrix(12.14 0 0 8.102 -723.09 -458.53)" fill="#b3b3b3" opacity=".99875">
    <path d="m60.02 123.55s7.4603-0.13714 7.9564 0.16052c0 0-0.19844 0.33073 1.3725 0.38034l10.335 0.21497s0.99219 0.14883-4.5475 1.9348c0 0-1.7529 0.38033 10.17 0.49609 0 0 1.6702 0-1.0087 1.4883 0 0 17.595 1.5875 16.255 2.5135 0 0 1.0914 1.1245-24.441 0.13229 0 0-3.4892 0.36381 13.576 2.3151 0 0 1.5544 0.84336-8.4832 0.71107 0 0-9.4589 0.0165-14.006-0.33073 0 0-1.8082-0.46285-7.1825 0.0994z"/>
    <path d="m125.05 119.91c-0.22413 0.0799 0.33697 0.62932 0.33697 0.62932l0.32029 0.30566s0.35554 0.38861-2.4805 0.20671c-2.836-0.1819-5.4157 2.1911-5.4157 2.1911s-0.35553 0.24805 5.887-0.99219c0 0 1.3477 0.33073 1.9844 0.0413 0 0 2.4391 0.36384 2.1497-0.80198 0 0 2.4391 0.58705 2.5218 0.20671 0 0 0.49609-0.339-0.0413-0.68626 0 0-4.4283-1.3978-5.2627-1.1004z"/>
   </g>
  </g>
 </g>
</svg>
